/* XPM */
static char *Studio_Project__4_1736685271[] = {
/* columns rows colors chars-per-pixel */
"32 32 35 1 ",
"  c #ACA575",
". c #ACA676",
"X c #AFA877",
"o c #AEA678",
"O c #AEA878",
"+ c #AFA97A",
"@ c #B1AA7A",
"# c #B3AC7B",
"$ c #B2AB7D",
"% c #B3AC7D",
"& c #B4AF7D",
"* c #B5AF7E",
"= c #B5AE7F",
"- c #B6AF7F",
"; c #B4AE80",
": c #B7AF81",
"> c #B6AF82",
", c #B6B081",
"< c #B7B083",
"1 c #B7B084",
"2 c #B8B082",
"3 c #B8B383",
"4 c #B9B383",
"5 c #B9B285",
"6 c #B8B385",
"7 c #BBB485",
"8 c #BAB487",
"9 c #BCB587",
"0 c #BBB588",
"q c #BCB588",
"w c #BCB788",
"e c #BEB88B",
"r c #BFB98D",
"t c #C1B88C",
"y c #C1BB8F",
/* pixels */
"O@O%%=>$0%%%%16<##<4*222488<%%OO",
"o=58>>80O=%%<0te8<8*=**=#XXX#%.%",
"=<955q825X*%<0et988*8#2=#*>%%%O@",
"1<q02e923=%%<48eqe089822X2%@@@>1",
"=289q=8824<*9929e9842<9*#<=*X%;@",
"28<88<=#2<*2e84829<==2**==*<%>%<",
"222==8=*2<<2e8e8qqq8=2===@=<#.%%",
"=*8<8592=*2448<88*<4-9#**4<8<>%%",
"=<2282q=*95<8*2#<%8828##=#*<<*<<",
"95=4<58=*2<*X2##%%#**<2<<4<4<<2<",
"<@#=#*2*@@#<49<<#&#%<*8<<924888%",
"%%%##<#=<<8=*288&X%%X<%%248*88<#",
"<=22*2===-4489<81<O%#%%&=<<2<*=*",
"88898288e9<22e<8%&**<%#<*#*%=842",
"y82tte08488e%@0<#X%1%%X#%<=%=#8t",
"=#89084e858t8=1#.XO@X%#%%=%#**42",
"#O<8=<848<8<<O%.X@%%%=5*r=<#<14<",
"224%#*<##XXX%=.%@=88==95%@X%%0r8",
"e8e<4=2=#&>=%%..22889e485%%=<ery",
"t8922-82@<=Oo%#<8<9q28e2<2=%*<ee",
"e8892*8*#<%%#<<<%5ee8=<484<*e828",
"884#=2***%<<=<X%<0289=<#4*22848w",
"9w98*9=#<**<=@=@8<4<=q*>*<24eet<",
"2*<484=<@4<45=@=*<22298*#*428248",
"<#48<<#*##=<=%==#<8<842=24422==%",
"==%%<<4**4<==1<<8<#*24<*<*<5=*#%",
"#=%%*=8<*e88058%<%#<%*2<*#=*<8<<",
"%X@#X*==44<=%5<#*###@<##242<448w",
"=*#===@=*222*<%=<<22=*=#*<288<<<",
"<<#=#<@*<=#==442r84w8298e8828e42",
"#@#%@@=@O<%#%%8te84et8984889<*8<",
"@X@%@X==%<=#=%=5X#898999488e8=2#"
};
