/* XPM */
static char *Studio_Project__12_1736858840[] = {
/* columns rows colors chars-per-pixel */
"32 32 127 2 ",
"   c #6E5839",
".  c #725338",
"X  c #355A40",
"o  c #296143",
"O  c #3C6946",
"+  c #327245",
"@  c #377C46",
"#  c #387D46",
"$  c #4C6640",
"%  c #547841",
"&  c #666E41",
"*  c #727D59",
"=  c #904F35",
"-  c #9F5E3B",
";  c #BE4A2F",
":  c #AD4E33",
">  c #BB593E",
",  c #AF6E36",
"<  c #B46934",
"1  c #B27139",
"2  c #C44F2E",
"3  c #CA532D",
"4  c #D35F2F",
"5  c #D85E29",
"6  c #C45430",
"7  c #D6632D",
"8  c #D1793E",
"9  c #E16527",
"0  c #E66926",
"q  c #EC6D25",
"w  c #E36D2A",
"e  c #EF7024",
"r  c #F67522",
"t  c #F87D24",
"y  c #F27829",
"u  c #8E6044",
"i  c #8F6D50",
"p  c #906D51",
"a  c #8C7659",
"s  c #8C7B5B",
"d  c #A96E54",
"f  c #B47559",
"g  c #A37F61",
"h  c #C66644",
"j  c #C87855",
"k  c #458149",
"l  c #418C4B",
"z  c #4B9C49",
"x  c #579C5D",
"c  c #65835D",
"v  c #69825B",
"b  c #75845D",
"n  c #51A94B",
"m  c #58B54C",
"M  c #51A752",
"N  c #5DBB55",
"B  c #4D9561",
"V  c #649466",
"C  c #4EA767",
"Z  c #53A363",
"A  c #54B165",
"S  c #5DA872",
"D  c #5FC04C",
"F  c #63C64D",
"G  c #61C450",
"H  c #9B8A3B",
"J  c #BB8E3D",
"K  c #F98728",
"L  c #FA8B2A",
"P  c #FB992D",
"I  c #E38E3A",
"U  c #EA9033",
"Y  c #F69632",
"T  c #FDA532",
"R  c #FEAD34",
"E  c #F3A13E",
"W  c #F6AC3B",
"Q  c #F9AA39",
"!  c #FFB239",
"~  c #93865A",
"^  c #AA8745",
"/  c #A58949",
"(  c #868B65",
")  c #888B67",
"_  c #868E68",
"`  c #949167",
"'  c #999066",
"]  c #96936B",
"[  c #9B956E",
"{  c #9B9871",
"}  c #A58164",
"|  c #B68C63",
" . c #BB8D65",
".. c #A29A6E",
"X. c #B19765",
"o. c #BA9F6F",
"O. c #A09872",
"+. c #A89E73",
"@. c #ADA777",
"#. c #AEA678",
"$. c #AFA879",
"%. c #B3AC7D",
"&. c #C79B43",
"*. c #D48B56",
"=. c #D59359",
"-. c #DAA344",
";. c #E7A84A",
":. c #E1B447",
">. c #E0B548",
",. c #FEBE41",
"<. c #C08B6C",
"1. c #CA9A65",
"2. c #FEC445",
"3. c #FBC34B",
"4. c #FECB4C",
"5. c #FED04F",
"6. c #FED150",
"7. c #FED855",
"8. c #F7D75C",
"9. c #FEE15D",
"0. c #FEE761",
"q. c #B6AF80",
"w. c #B7B082",
"e. c #B9B284",
"r. c #BCB689",
"t. c #BFB88C",
"y. c #C1BA8E",
/* pixels */
"$.%.#.q.%.q.q.q.r.%.%.$.q.w.e.w.%.%.w.e.%.e.e.e.e.e.e.e.%.%.$.$.",
"@.%.e.r.q.q.e.e.$.%.%.%.q.r.y.t.e.w.e.q.%.w.%.%.%.$.$.@.%.%.@.%.",
"%.q.r.e.q.r.r.q.e.%.%.%.w.r.t.t.e.r.e.w.e.%.e.%.%.%.%.%.%.%.@.$.",
"e.w.r.r.e.t.r.q.e.%.%.%.w.e.e.t.t.r.r.e.e.e.e.w.$.e.%.%.$.%.%.e.",
"q.w.w.r.r.q.e.r.e.w.e.q.e.y.%.e.r.r.e.e.e.q.e.w.%.e.%.%.$.%.q.%.",
"w.r.w.r.r.q.q.$.w.w.] V S S ) y.e._ S S V [ %.q.%.%.e.q.%.q.%.q.",
"e.w.e.q.%.r.q.q.w.[ b x A A v ( ) v A A x b ` %.%.%.%.w.%.#.%.#.",
"q.q.w.w.r.w.r.q.%.v Z N G F z l k z F G N Z v q.%.e.e.r.w.%.%.q.",
"q.q.e.w.r.w.r.%.q.c C M m F m n n m F m M C c %.%.%.%.e.w.%.w.w.",
"e.e.q.w.q.e.e.q.%.* B l z D D F F F N z l B v %.w.e.e.e.w.e.e.e.",
"q.$.$.q.$.e.q.q.$.] * O # z m F F m z @ O * { w.e.e.e.e.w.r.e.%.",
"q.%.q.%.%.q.%.q.w.e.] & % # z m m z @ % & ] %.w.e.e.e.%.r.e.w.%.",
"w.q.w.w.q.e.q.%.q.w.[ J H o # l l # o H J ` %.%.w.%.w.e.w.w.%.w.",
"r.e.e.e.e.w.t.e.r.' / :.&.. $ + + $ . &.>./ ~ w.%.%.w.%.%.e.e.e.",
"y.e.e.y.y.y.e.q.+.^ ,.7.;.6 . X X   6 ;.7.! ^ ..$.q.%.%.%.%.e.t.",
"%.%.e.y.e.e.e.o.1 -.6.3.W U < = = < U W 2.5.-., X.q.%.%.%.w.w.e.",
"%.$.e.%.$.y.e.1.0 E 3.R R R I 8 8 I R R ! 3.E 0 1.q.q.%.w.e.w.q.",
"%.e.e.%.%.%.%.| 2 w L T R R 4.8.8.4.R R T L w 2 | %.#.$.q.r.t.r.",
"y.e.y.%.%.%.w. .; 7 t L T R 5.0.9.5.R P L t 9 ;  .q.%.q.w.r.t.y.",
"y.y.y.e.%.y.e.X.: 7 r r L T 5.9.9.4.R L r y 4 : | w.q.%.w.e.r.t.",
"e.y.%.y.e.%.r.@.~ - 4 e K K T ! 2.R K K e 5 , s @.e.w.%.r.e.e.e.",
"e.e.e.$.%.e.%.%.%.- 3 0 r r P R R P r r e 3 u %.e.%.e.e.r.e.e.r.",
"y.y.y.%.%.r.%.%.%.u 3 q r r P R R P r r q 6 u %.q.q.w.e.t.r.y.w.",
"%.%.%.e.e.r.%.e.@.i h 7 0 r P R R P r 0 7 6 p %.%.%.e.e.e.e.e.r.",
"%.%.e.e.%.%.%.%.%.a f > 4 y Y Q Q P r 4 > f s %.e.e.e.e.e.%.%.%.",
"%.%.%.%.e.e.e.e.%...a d j j *.=.=.*.j j d s [ %.e.%.w.e.%.%.%.%.",
"%.%.%.%.e.%.y.%.%.t.O.} <.<.<.<.<.<.<.<.g [ w.w.%.%.%.w.e.e.e.e.",
"%.%.%.%.$.%.%.%.e.e.e.%.%.e.e.%.%.%.%.%.%.e.%.%.e.e.e.%.e.e.r.e.",
"%.%.%.%.%.%.%.%.%.%.e.e.e.%.%.%.e.q.e.e.%.q.q.%.w.w.e.e.e.e.e.e.",
"y.%.%.%.%.%.%.%.e.w.%.%.%.e.e.e.r.r.e.e.r.w.e.e.t.r.w.w.e.r.e.q.",
"%.%.%.%.%.%.%.%.%.q.%.%.%.%.e.y.y.r.e.r.t.r.r.e.e.e.r.r.q.q.r.q.",
"$.$.$.%.$.%.%.%.%.w.%.%.%.%.%.e.$.%.e.e.e.r.r.e.e.r.r.r.e.%.w.%."
};
