/* XPM */
static char *Studio_Project__19_1736865904[] = {
/* columns rows colors chars-per-pixel */
"32 32 67 1 ",
"  c #735338",
". c #296142",
"X c #3C6946",
"o c #327345",
"O c #377C46",
"+ c #387D46",
"@ c #4C6640",
"# c #556E4F",
"$ c #547841",
"% c #546E50",
"& c #666E41",
"* c #7E6D49",
"= c #707B57",
"- c #727D59",
"; c #80704D",
": c #C06A43",
"> c #458149",
", c #428C4B",
"< c #4B9C49",
"1 c #579C5D",
"2 c #64835D",
"3 c #69825B",
"4 c #75845D",
"5 c #51A94B",
"6 c #58B54C",
"7 c #51A752",
"8 c #5DBB55",
"9 c #4D9561",
"0 c #649466",
"q c #4EA767",
"w c #53A363",
"e c #54B165",
"r c #5DA972",
"t c #5FC14C",
"y c #62C64D",
"u c #61C450",
"i c #9B8A3B",
"p c #BB8D3D",
"a c #93865A",
"s c #A58949",
"d c #AA8E4F",
"f c #B09456",
"g c #868B65",
"h c #888B67",
"j c #868E68",
"k c #9B8E63",
"l c #96926B",
"z c #9A966D",
"x c #9B9871",
"c c #ADA676",
"v c #AFA877",
"b c #ADA679",
"n c #AFA879",
"m c #B3AC7D",
"M c #C79B43",
"N c #DAA957",
"B c #E1B447",
"V c #E0B548",
"C c #EDBB52",
"Z c #EBCD5F",
"A c #EDD062",
"S c #B6AF81",
"D c #B7B082",
"F c #B9B384",
"G c #BCB689",
"H c #BFB88C",
"J c #C0BA8E",
/* pixels */
"nmnSnSSSGmmnSFFSmmSFmFFFFFFFmmnv",
"bmSGSSFGnmmmSGJHFFFSmSmmmvnnmmcm",
"mFGFFGFSFmmmSGHJFGFSFmDmmmmmmmnn",
"FSGGFHGSFmmmSFFGGGHFGFFDvDmmnnDD",
"SFGGGSFGDDFmGJmGGGFFFSFDmDmDnmSn",
"SFSFGSSnFDz0rrjGFjrr0zSDmmDSmDnF",
"FSFmnGSSSz41ee3gh3ee14lnmmmDmbSm",
"SSGDGFGSm3w8yy<>><yu8w=SDFFFFmmm",
"mSFDJSFmD2q76y6556y67q2mmmmFFDSD",
"GFSFSFFSm-9,<ttyyt8<,93SDFDFDDFD",
"SmnSvDDDnl-X+<6yy6<OX-xDDFFFFFFm",
"mnmmmDmmFFl&$+<66<O$&lmmFFFmGGDm",
"DSFDSDSmSFzpi.O,,+.ipkmmmSmFDFmm",
"FGFFFDGFGksVM @oo@ MBsaSDmDmmFFF",
"JGFJJGGScfCAN:;%#*:NZCdcbSmmmmFH",
"mmFGFGFJGSFHGmSmcvvmbmnmmmmmDmFF",
"mmmGmGGFFFGDDnmcvmmmmDFSGmSmFFDD",
"mmGmmmmmnccnmmcnvmGFmmGFmmnmmGHG",
"JGGmmmmmmFmDmmcnDFFFFHFFFnSSDGHH",
"JGJGmGGGmmDnnnmDFmGHFGHDFDmmDFGH",
"GGmJmFFmmFmmmFFDmFGHGmFFFFDmGFFG",
"mJmmmFmmmmFDmFvmDGDGFmDmFmFFFFFH",
"HJJmmGmmmmmFmnmmFFFmDHmmmFDFHGHD",
"mmmHFGmFnFDFFFmmDDFDFGGmmmFFFFFF",
"mmmHmmmmmmmGmmmmmFHFGFFmFFFFFmmm",
"mmmmGmGGmFmmmFmFGmmmFFFmmmFFmmmm",
"mmmmmmmmmHmHHFFmmmmmvmmFFmmmmFmG",
"mmmmmHmmFFFmmGFmmmmvmFmmFFmFFFGG",
"mmmmmmmmmFFFmmmmFmFFmmmmmDFFGFmG",
"HmmmmmmmFmmmmFFFHGFHGmHFHFFFGGFF",
"mmmmmmmmmFmmmmGHHGmHHGGFFFGGmFFm",
"vvvmmmmmmmmmFmmFvmmHFGGGFGGGGmFm"
};
