/* XPM */
static char *Studio_Project__18_1736863278[] = {
/* columns rows colors chars-per-pixel */
"32 32 119 2 ",
"   c #181425",
".  c #191628",
"X  c #1C1A2D",
"o  c #1D1C30",
"O  c #201D2E",
"+  c #222236",
"@  c #23243B",
"#  c #2C2B3E",
"$  c #262941",
"%  c #282C45",
"&  c #292F48",
"*  c #2B314B",
"=  c #323346",
"-  c #2E3550",
";  c #303751",
":  c #323955",
">  c #353E5C",
",  c #37405E",
"<  c #3A4463",
"1  c #3D4869",
"2  c #54534E",
"3  c #4D4F56",
"4  c #645F4F",
"5  c #676152",
"6  c #6A6454",
"7  c #6F6955",
"8  c #67645C",
"9  c #6B6659",
"0  c #6D685A",
"q  c #736E57",
"w  c #726D5A",
"e  c #75715B",
"r  c #7A755D",
"t  c #7F7A5E",
"y  c #404862",
"u  c #434E6D",
"i  c #45506D",
"p  c #4A546E",
"a  c #575B65",
"s  c #595C64",
"d  c #575D6B",
"f  c #585E6C",
"g  c #444F70",
"h  c #465272",
"j  c #4C5877",
"k  c #4D5979",
"l  c #54607F",
"z  c #636661",
"x  c #666A66",
"c  c #6A6C64",
"v  c #646569",
"b  c #666A6E",
"n  c #696D69",
"m  c #757563",
"M  c #787761",
"N  c #7C7B64",
"B  c #727368",
"V  c #797868",
"C  c #6D7075",
"Z  c #6D727A",
"A  c #827B5D",
"S  c #858165",
"D  c #938D6A",
"F  c #96926B",
"G  c #9A936D",
"H  c #A29C73",
"J  c #ABA576",
"K  c #A6A079",
"L  c #AAA379",
"P  c #AFA979",
"I  c #B3AC7C",
"U  c #556281",
"Y  c #596684",
"T  c #5C6986",
"R  c #5B6A88",
"E  c #606F8D",
"W  c #69768F",
"Q  c #737983",
"!  c #657592",
"~  c #687793",
"^  c #6B7995",
"/  c #6F7F9B",
"(  c #707F9C",
")  c #78818F",
"_  c #73819D",
"`  c #78849C",
"'  c #7C889F",
"]  c #7786A0",
"[  c #7C8AA5",
"{  c #7E8DA8",
"}  c #B5AE81",
"|  c #B7B082",
" . c #B9B284",
".. c #BCB689",
"X. c #BFB88D",
"o. c #808FA9",
"O. c #8391AA",
"+. c #8A95AC",
"@. c #8F99AE",
"#. c #9099AD",
"$. c #8696B0",
"%. c #8897B0",
"&. c #8B9BB4",
"*. c #949FB6",
"=. c #93A0B7",
"-. c #95A4BB",
";. c #9AA7BC",
":. c #99A8BF",
">. c #C1BB8F",
",. c #A1ADC2",
"<. c #ABB6CA",
"1. c #ABB8CB",
"2. c #B0BBCC",
"3. c #B3BED0",
"4. c #B6C2D4",
"5. c #BBC5D6",
"6. c #BCC7D9",
"7. c #BEC9DB",
"8. c #C0CBDC",
/* pixels */
"P I P I I } } } ..I I I I  .| | I I  . .I |  .| | .. .| I I I I ",
"P I  . .} }  . .P I L m m m V V m m m m e N | I I I P P I I J I ",
"I } .. . .....} L M M o.o.o.o.O.O.O.o.o.O.) N N P I I I I I P P ",
"|  ..... .>.K S m ^ ( 7.8.8.8.8.8.8.8.8.7.;.l ~ t S P P I I I } ",
"I | .... .H B ! ( %.[ ,.7.8.8.8.8.8.8.8.<.^ h &.~ ~ N L P I } I ",
"| ..} ..L B ] &.&.{ 1 1 ,.1.1.1.<.<.<.<.+.1 h &.&.&.^ N K } I } ",
"..I | I x ] &.&.&.` < & 1 1 1 1 1 1 1 1 > ; u +.&.&.&.! t I I I ",
"| I ..| c ( &.&._ * * & 1 1 1 1 1 1 1 1 < & * ; &.&.&.! S I I I ",
"I | | c ( ,.6.@.; * * * 1 1 1 1 1 1 1 1 , * * * : 1.7.-.W N } | ",
"....I c *.6.8.#.* * * * - - * - - - - ; * * * * * 1.8.5.[ M  .| ",
"} I I x =.8.8.#.* * * * o X o X X X X o + * * * * 2.8.8.{ V  .I ",
"I I I x =.8.8.#.* * * * .               X * * * * 2.8.8.{ N | I ",
"| } | c *.8.8.#.* * * *                 o * * * * 2.8.8.{ M I I ",
"......n *.8.3.[ * % + +                 . + @ * * -.5.8.[ N  . .",
">... .n *.8.1.^ * %                         . * * o.4.8.{ M  .>.",
"I I | n *.7.1.^ * %                         . * * o.4.8.[ M |  .",
"I P  .z ` ;.&.R - @                         . $ - ^ =.;.~ M  .} ",
"| |  .2 > 1 i k i #                         X = k k 1 1 : e X...",
"......2 , u E &.&.' @ .                   X = &.&.&.U u : e X.>.",
"X.....2 i _ &.&.&.&.+.* X X O O O O O X + y &.&.&.&.&.! < w ....",
"......2 i R / &.&.&.+.1 O.3.6.6.6.6.6.<.( j &.&.&.&.! R < e |  .",
" . .| 2 T / R E ^ &.=.2.6.7.7.7.8.8.8.7.4.<.&.%.! R R [ p e  ...",
"..>...r Z $._ R R ! ! -.7.7.8.8.8.8.8.8.3.&.! ! R R [ %.v D >.| ",
"I I | S Z &.$._ R R E &.:.:.:.:.:.:.:.:.-.O.Y R R [ &.&.x F  . .",
" .I  .S 6 Q &._ k R R &.&.&.&.&.&.&.&.&.&.o.R R h O.&.C 8 D I I ",
"I I I A 6 8 Q _ g R R R &.&.&.&.&.&.&.&.{ R R Y 1 O.C 8 4 D P I ",
"I I I G e 5 8 v a U Y j ( ] ( ( ] ( _ ] ! k R Y 3 b 6 6 A K  .| ",
"I I I I A 6 5 6 6 s d T R R R R R R R R R Y a s 8 6 6 6 G  .....",
"I  .I I G q 4 5 6 5 5 f f d d d d f d f f s 6 6 5 6 6 r K | |  .",
" .I I I I G q 6 6 5 5 6 5 6 6 9 9 9 6 0 6 6 6 6 0 9 r K  .X. .| ",
"I I I I I P D q 4 5 5 5 5 5 9 0 0 9 6 0 0 9 9 6 6 e P ..| |  . .",
"P I P I P P I G 7 7 q 5 6 6 5 6 4 5 6 9 6 0 w w w I ..X. .I | I "
};
