/* XPM */
static char *Studio_Project__15_1736861918[] = {
/* columns rows colors chars-per-pixel */
"32 32 135 2 ",
"   c #3E2730",
".  c #3E2631",
"X  c #3E2731",
"o  c #3F2731",
"O  c #412831",
"+  c #462B33",
"@  c #472B33",
"#  c #482A32",
"$  c #4B2C33",
"%  c #4B2D33",
"&  c #503134",
"*  c #553437",
"=  c #553537",
"-  c #5C3435",
";  c #5C3938",
":  c #5C3839",
">  c #5D3839",
",  c #5C3939",
"<  c #5D3939",
"1  c #663836",
"2  c #673837",
"3  c #663937",
"4  c #673937",
"5  c #623B38",
"6  c #633A39",
"7  c #6D3C39",
"8  c #6C3D39",
"9  c #6D3D39",
"0  c #733E38",
"q  c #733E39",
"w  c #733F39",
"e  c #6F423D",
"r  c #72413B",
"t  c #77413A",
"y  c #7D463D",
"u  c #81463D",
"i  c #80473D",
"p  c #844A3E",
"a  c #844B3F",
"s  c #834F42",
"d  c #8A4F41",
"f  c #875045",
"g  c #8D5544",
"h  c #8E5847",
"j  c #8F5847",
"k  c #895449",
"l  c #895549",
"z  c #905444",
"x  c #905544",
"c  c #945846",
"v  c #9A5A46",
"b  c #905B4B",
"n  c #965B4A",
"m  c #995C48",
"M  c #985D48",
"N  c #995D48",
"B  c #985D49",
"V  c #995D49",
"C  c #8E5F50",
"Z  c #8E5F51",
"A  c #906152",
"S  c #916355",
"D  c #9D6A56",
"F  c #A7624A",
"G  c #A6634A",
"H  c #A7624B",
"J  c #B86E50",
"K  c #B86F50",
"L  c #B96F50",
"P  c #A0705E",
"I  c #A0715E",
"U  c #A1715E",
"Y  c #AE735D",
"T  c #B47154",
"R  c #B57154",
"E  c #BA7457",
"W  c #BD7757",
"Q  c #B67658",
"!  c #BF7E5F",
"~  c #B97C60",
"^  c #B87C61",
"/  c #C07B58",
"(  c #C17B58",
")  c #C37C58",
"_  c #C37D58",
"`  c #C27D59",
"'  c #BF8063",
"]  c #B68269",
"[  c #BD8B70",
"{  c #BD8B71",
"}  c #C68664",
"|  c #C68665",
" . c #C88C64",
".. c #C88D64",
"X. c #C88C65",
"o. c #CE8F66",
"O. c #C28469",
"+. c #C28569",
"@. c #C38569",
"#. c #C48A6D",
"$. c #CA8D6A",
"%. c #CA8C6B",
"&. c #CA8D6B",
"*. c #CB906F",
"=. c #C9946E",
"-. c #C9956E",
";. c #D29268",
":. c #D39268",
">. c #D99868",
",. c #D89869",
"<. c #D99869",
"1. c #D99969",
"2. c #C89070",
"3. c #C99070",
"4. c #C99475",
"5. c #CC9676",
"6. c #CC9979",
"7. c #D69E73",
"8. c #DB9F70",
"9. c #DB9E71",
"0. c #DDA67A",
"q. c #DDA77A",
"w. c #C5A082",
"e. c #CBA682",
"r. c #CBA683",
"t. c #CFA985",
"y. c #CCAE8E",
"u. c #D8B08C",
"i. c #D8B18E",
"p. c #DFB88F",
"a. c #D1B291",
"s. c #D1B391",
"d. c #DBBC97",
"f. c #E0C09A",
"g. c #E0C19A",
/* pixels */
"+.+.+.+.+.+.+.+.#.@.@.+.+.+.#.+.+.+.+.+.+.+.+.+.+.+.+.+.+.+.+.+.",
"+.#.4.6.6.5.$.$.&.&.&.%.%.%.&.&.&.&.&.&.$.$.$.$.$.*.6.6.6.4.#.+.",
"+.4.i.f.f.p.q.9.9.>.9.9.9.9.9.>.>.9.9.9.>.q.>.q.0.0.p.g.g.u.4.+.",
"' 2.i.d.s.r.-...X.X.X.X.X.X.X.X.........X.X.X.X. .=.6.s.d.a.2.! ",
"E ! 2.{ U A b b h h h j h h h h b b b g b g g h b b A U #.2.! Q ",
"K W | ^ n y 7 4 3 3 2 3 3 3 3 3 2 3 2 2 2 2 4 2 4 7 y n ! +.W T ",
"K ( :.o.T x 6 $ % $ $ $ $ $ % % $ $ $ $ % $ $ $ $ 5 x R o.:./ K ",
"K _ >.>._ N ;     O o       X X         O         - N _ >.>./ K ",
"K _ >.>.` V ;       O . X X X X X X X X . X . .   - N ' >.>._ R ",
"K _ >.>.` B > O   O O . X X X X X X o X X . . O o ; v _ >.>._ K ",
"K _ >.>.( B :   X X . . X X X X X o o o X X       ; N _ >.>._ L ",
"K _ ,.>._ B :   X X . . X X X X X X o o o o       ; N ' >.>._ L ",
"K _ >.>._ N :   X X X X X X X X X X X X     O O O > N ) >.>._ K ",
"K _ ,.,.( N :   X X X X X X X X X X X X           > N ) >.>._ K ",
"K _ ,.,.` N >   X X X X X X X X X X X o           > N ) >.>._ K ",
"K ( :.o.T n r : : : , , , , , , : : : ; : ; ; ; > e b R o.:._ K ",
"T Q +.! n g x N N N N N N N N N n n B B N N N m m c f v ^ | W K ",
"W _ &.{ U D Q W ` ` ` ) ) ) _ _ _ _ _ ' ` ` ` ` ` E D U [ 2.! E ",
"! 2.u.d.s.t.7.,.<.<.>.>.>.>.>.>.>.>.>.>.<.<.>.>.>.7.t.s.d.u.*.' ",
"Y ] w.y.y.e.-.X...................................-.e.y.y.w.] Y ",
"f l Z S S C b b x b g b b g b x x j x h b j b g b b C S S C l f ",
"0 t u y 7 7 y f p s p p a a p p p f p p p p p p a y 7 7 y y t r ",
"0 u v x 3 3 x F F F F F G G G G G G G G G F G G H g 6 6 x v u 0 ",
"0 s H N ; * s N N N N N N N N N v N N N N N N N N f * ; N F p 0 ",
"0 s H v : + * > : : : ; : : < < ; ; , , : : : ; ; = @ ; N G p 0 ",
"0 s H v : O $ % $ & ; ; : : < < ; ; ; , , * & $ $ @   ; N G p 0 ",
"0 u F v : $ - 3 2 r g N n B B B B B N N N g r 2 2 - $ ; v H s 0 ",
"0 s F v : + - 3 3 r g n N n B B B B N N N g t 3 2 - @ ; N G p 0 ",
"r a H N : O $ $ % & ; : ; ; > > ; ; ; ; , * & % $ + O : N H s 0 ",
"0 a H N : + * : 6 , ; : , ; > > ; ; , , ; ; > : : * $ : N H s 0 ",
"r p H n , * s N n N N N N N V V V V V V N N N N N s * : v F p 0 ",
"0 p H N , ; N K K K K K K K K K K K K T K K K K K N : > v F s 0 "
};
