/* XPM */
static char *Studio_Project__17_1736862478[] = {
/* columns rows colors chars-per-pixel */
"32 32 72 1 ",
"  c #432A32",
". c #492C32",
"X c #533336",
"o c #5A3536",
"O c #5C3939",
"+ c #663837",
"@ c #623A39",
"# c #733E39",
"$ c #74413B",
"% c #7D463D",
"& c #80473D",
"* c #844A3F",
"= c #834F42",
"- c #8A4F41",
"; c #875045",
": c #8D5444",
"> c #8F5847",
", c #895549",
"< c #905544",
"1 c #945846",
"2 c #9A5A47",
"3 c #935B4B",
"4 c #995D48",
"5 c #8E5F51",
"6 c #916254",
"7 c #9D6A56",
"8 c #A7634A",
"9 c #B86F50",
"0 c #A0715E",
"q c #AE735D",
"w c #B47154",
"e c #BC7656",
"r c #BF7E5F",
"t c #937F61",
"y c #B97C60",
"u c #C37D58",
"i c #958165",
"p c #988265",
"a c #978569",
"s c #9C8769",
"d c #BF8063",
"f c #B68269",
"g c #BD8B70",
"h c #AEA777",
"j c #AFA879",
"k c #B3AD7D",
"l c #C68664",
"z c #C98C64",
"x c #C28569",
"c c #C48A6D",
"v c #CA8D6B",
"b c #CA936E",
"n c #D39268",
"m c #D99869",
"M c #C99272",
"N c #CC9979",
"B c #D79F73",
"V c #DB9E70",
"C c #DDA67A",
"Z c #B6AF80",
"A c #B7B082",
"S c #B9B385",
"D c #BCB689",
"F c #BFB88C",
"G c #CBA683",
"H c #CFA985",
"J c #CCAE8E",
"K c #D8B08D",
"L c #DFB88F",
"P c #D1B391",
"I c #DBBC97",
"U c #E0C09A",
/* pixels */
"xxxxxxxxxxxxxxxxxxxxxxxxxxxxxxxx",
"xcMNNNMvvvvvvvvbvvzvvvvvvMNNNMcx",
"xMKUULCmVVVVVmCmVVVVVVVVmCLUUKMx",
"dMKIPGMzzzzzzzzzzzzzzzzzzMHPIKvx",
"edMc063>>>>>>>>>>>3<3>>>>360gMre",
"9ely4%itppppppppiitpptttpp%4yle9",
"9unzw>tkSSDkkkDFSSAAkkjkht<wnnew",
"9ummu4iSDDDkkkSDDDSSSkkkki2ummu9",
"9ummu4iSDAAASSDSDSkSkkkkZt4ummu9",
"9ummu4iAZSAAkSSDSDSkkkSkjt4ummu9",
"9ummu4iAASAADAAkkSSSkkkAAi4ummu9",
"9ummu4ikAAAkkkDkkkkASDSSSi4rmmu9",
"9ummu4ikkAkkDkSSkkkkkSkDki4ummuw",
"9ummu4aDDSDDSSFDkkkkSkkkSa4ummu9",
"9ummu4iSDDDDSFkkhkkkkkkkSa4ummu9",
"9ennw1pkAAAAkkkhkkkkSkkSSs1wznu9",
"9elr4:>>228*8*424222222221*4dze9",
"erMgt4dzduldluddduddddduz970gbdw",
"yMKICCBmmmmmmmmmmmmmmmmmmmCPIPbd",
"qfZJJSbzzzzzzzzzzzzzzzzzzzkPJNfw",
"-,56>5>>*21<>>>>*21<>>>>>,5566,=",
"#$&%$$%%****************%$$$%%$$",
"#&2<$o1888888888888888888>$O*4%$",
"#*84oo*444444444444444444;XO88*$",
"#=84O XOOOOOOOOOOOOOOOOOOX O48*#",
"#*84O ....OOOOOOOOOOOo.... O48*#",
"#*84o.o++$:4444444444>$+$o O48*#",
"#*84@.o+@$:4444444448*$@Oo.O48*#",
"#*84O ...XoOOOOOOOOOOOX... O48*#",
"#*84O XOOOOOOOOOOOOOOOOOOX O48*#",
"#*84Oo=444444444444444444*oO48*#",
"#*84OO2w999999999999999994Oo48*#"
};
