/* XPM */
static char *Studio_Project__21_1736866711[] = {
/* columns rows colors chars-per-pixel */
"32 32 160 2 ",
"   c #1C1626",
".  c #1E1A27",
"X  c #1D1A29",
"o  c #231927",
"O  c #261C29",
"+  c #2C1E2B",
"@  c #3F1B2A",
"#  c #1E2134",
"$  c #27202B",
"%  c #2B252C",
"&  c #2F2C2F",
"*  c #33222C",
"=  c #332B2F",
"-  c #292333",
";  c #21243A",
":  c #3F2731",
">  c #362B35",
",  c #3B2C33",
"<  c #353131",
"1  c #3B3432",
"2  c #3D3836",
"3  c #43272E",
"4  c #40282E",
"5  c #442B32",
"6  c #4C2C32",
"7  c #5C2733",
"8  c #502B39",
"9  c #423536",
"0  c #4A3333",
"q  c #493B37",
"w  c #4E3B3B",
"e  c #593135",
"r  c #5D3B3A",
"t  c #633536",
"y  c #6A3837",
"u  c #623D3A",
"i  c #6D3B3A",
"p  c #743C39",
"a  c #783E3A",
"s  c #464239",
"d  c #4B463C",
"f  c #4D493D",
"g  c #52473D",
"h  c #524B3E",
"j  c #61413C",
"k  c #71403B",
"l  c #7C413C",
"z  c #704B3F",
"x  c #262B43",
"c  c #292D44",
"v  c #292F48",
"b  c #283049",
"n  c #333E5C",
"m  c #442E47",
"M  c #563E5A",
"N  c #6A2A41",
"B  c #7E3D58",
"V  c #35405E",
"C  c #374463",
"Z  c #5C4441",
"A  c #564D41",
"S  c #584F41",
"D  c #5B5546",
"F  c #5F5A49",
"G  c #6D4B44",
"H  c #704843",
"J  c #7A4941",
"K  c #6B5047",
"L  c #625D4B",
"P  c #7D554A",
"I  c #7B5F4F",
"U  c #66614C",
"Y  c #6B664F",
"T  c #78674E",
"R  c #6D6951",
"E  c #726E59",
"W  c #7B7659",
"Q  c #7E795A",
"!  c #484362",
"~  c #A12437",
"^  c #B42237",
"/  c #82463E",
"(  c #843A53",
")  c #8D3B55",
"_  c #CA2E40",
"`  c #C83146",
"'  c #C33248",
"]  c #E02F43",
"[  c #834A41",
"{  c #8A4D42",
"}  c #8B5346",
"|  c #855848",
" . c #85584A",
".. c #925345",
"X. c #9F5A49",
"o. c #A15B4A",
"O. c #AA595D",
"+. c #B75C52",
"@. c #B95E55",
"#. c #856653",
"$. c #8E6A56",
"%. c #89635A",
"&. c #976953",
"*. c #9D6158",
"=. c #827D5D",
"-. c #96715A",
";. c #9E765D",
":. c #AA614D",
">. c #A26C56",
",. c #B36750",
"<. c #B66951",
"1. c #BA6D53",
"2. c #A27158",
"3. c #B57355",
"4. c #857F60",
"5. c #C35D53",
"6. c #C87F5C",
"7. c #C37B6A",
"8. c #86805E",
"9. c #858162",
"0. c #8C8664",
"q. c #8F8A67",
"w. c #8D8968",
"e. c #918A66",
"r. c #938E6B",
"t. c #96916C",
"y. c #9C946E",
"u. c #969170",
"i. c #9F9A70",
"p. c #B38667",
"a. c #BB8464",
"s. c #A39D75",
"d. c #ABA476",
"f. c #ACA579",
"g. c #AFA979",
"h. c #B3AC7D",
"j. c #C9805C",
"k. c #C58B67",
"l. c #C7836C",
"z. c #C88D68",
"x. c #D28E67",
"c. c #C5926E",
"v. c #CD946E",
"b. c #CD9971",
"n. c #D69474",
"m. c #D59D74",
"M. c #DC9D73",
"N. c #F2847A",
"B. c #EF967C",
"V. c #EE997C",
"C. c #E3A376",
"Z. c #E3A779",
"A. c #E9A87C",
"S. c #E9AC7D",
"D. c #B6AF81",
"F. c #B7B082",
"G. c #B9B284",
"H. c #BCB589",
"J. c #BFB98C",
"K. c #C1BA8E",
/* pixels */
"g.h.g.h.h.D.D.g.H.h.h.h.h.G.F.D.h.h.D.G.h.H.G.G.G.H.G.G.h.h.g.g.",
"f.h.G.H.D.D.H.H.g.h.h.h.D.G.K.J.H.F.G.D.h.h.h.h.g.g.g.h.h.h.g.h.",
"h.G.H.G.D.H.H.D.F.h.h.h.s.R U E f.w.L F 8.h.G.h.h.h.h.h.h.h.g.g.",
"G.F.H.G.G.H.H.G.H.h.h.h.e.% O 2 4.L *   D G.G.G.g.h.h.h.h.h.h.h.",
"D.G.G.H.H.D.G.H.F.F.F.h.t.& r } 9 r } * D F.G.h.h.G.h.h.h.h.D.h.",
"D.G.D.H.H.D.h.h.D.s.R U D 3 k { e i { * 1 U L =.h.h.G.G.h.h.h.D.",
"G.D.D.D.h.H.D.D.d.W % o * y a l l l y * o o o f i.d.h.h.h.g.h.h.",
"D.D.H.F.G.G.H.D.L 9 e e y a } +.:...p t r t e 6 9 e.H.H.D.h.h.h.",
"h.D.G.G.H.G.d.R q 6 p p p p { o.1.o.....[ p p t 4 S 8.F.F.F.D.F.",
"H.G.D.F.h.H.Q X 6 a p p p p p / +.1.1.1.o.p a p p * d G.F.F.F.G.",
"D.g.g.D.h.h.8.o 6 p a p p a p a l o.1.1.,.o./ p y @ d H.G.G.G.h.",
"h.h.h.h.h.F.Q X 3 t p y t p p p k { o.o.o.X./ p p + f h.H.H.F.h.",
"G.D.G.D.D.F.Q X + 6 i 8 6 i p p a a p p p a p p y * d F.F.G.h.h.",
"G.H.G.H.H.F.9.o + 5 8 5 5 6 t p p p p a p p p u 6 O d h.g.H.H.G.",
"K.G.G.K.J.H.4.. + 3 4 : 6 u [ ................i * 2 Y h.h.h.G.J.",
"h.h.G.H.G.H.4.X + 5 4 : r 3.6.6.6.6.j.6.6.j.j.| . =.F.h.h.h.G.F.",
"h.h.F.H.h.G.8.. - : : 4 j z.M.z.G &.M.M.2.j a.&.o Q F.h.G.F.F.F.",
"F.F.G.h.h.F.e.s , 5 G r H m.A.c., I S.S.$.% p.-.X Q g.h.D.H.J.H.",
"H.H.J.h.G.h.h.h.d w b.>.} M.S.c., T S.S.$.% p.-.. Q h.D.F.J.J.J.",
"H.H.H.F.F.G.G.G.h w m.v.k.Z.A.M.O.7.S.S.7.O.n.-.o =.h.h.h.G.H.J.",
"H.H.F.H.F.h.H.h.L g 2.b.C.Z.S.A.N.V.S.S.B.N.l.T s q.F.h.J.H.F.H.",
"G.H.G.h.h.F.h.F.f.=.= | x.C.S.S.A.S.V.K.A.V.Z h d.h.G.G.H.G.G.H.",
"H.H.H.H.F.H.h.h.W s X 5 J +.*.%.<.5.@.%.T K % h h.F.F.G.J.H.J.F.",
"G.F.h.G.F.H.d.r.A 9 9 = @ ~ N m ~ ^ ~ m -   , h q.d.G.F.G.G.F.H.",
"h.h.G.G.h.G.8.= #.b.b.P 7 _ ) M ' ] ` M c $ ;.#.& 0.H.F.G.h.h.h.",
"h.h.h.h.G.G.8.. -.C.x.P 8 ( M ! B ) ( ! v % 2.| . Q h.H.h.h.h.h.",
"h.h.h.h.F.h.0.< #.a.o.u > n C C n n C V c o l z < 9.h.F.h.H.G.G.",
"h.h.h.h.g.h.d.t.D , * O ; n C n ; ; b b #   + g y.g.G.h.G.G.H.H.",
"h.h.h.h.h.h.h.h.=.D L q 1 ; b x X X # # - 5 h Q h.F.F.F.H.h.G.H.",
"H.h.h.h.h.h.h.G.G.D.h.T j & % % - % % % 0 z t.G.J.H.H.F.H.H.G.F.",
"h.h.h.h.h.h.h.h.h.h.h.i.e.0.r.u.u.r.r.u.t.y.h.G.F.H.H.H.F.h.G.F.",
"g.h.h.h.g.g.h.h.h.D.h.h.h.h.F.G.f.h.G.G.H.H.H.H.F.H.H.J.H.h.F.h."
};
