/* XPM */
static char *Studio_Project__24_1736867051[] = {
/* columns rows colors chars-per-pixel */
"32 32 156 2 ",
"   c #171424",
".  c #1A1625",
"X  c #1E1B27",
"o  c #1E1B28",
"O  c #201B27",
"+  c #241C28",
"@  c #2D1E2B",
"#  c #1F2135",
"$  c #24212A",
"%  c #2B242D",
"&  c #34222C",
"*  c #3D2B2F",
"=  c #23273D",
"-  c #3F2731",
";  c #332E31",
":  c #393534",
">  c #411728",
",  c #42272E",
"<  c #442931",
"1  c #4D2C32",
"2  c #482C3A",
"3  c #5B2730",
"4  c #532E33",
"5  c #4A3837",
"6  c #453E39",
"7  c #523436",
"8  c #5B3234",
"9  c #593739",
"0  c #5A3A3B",
"q  c #612A36",
"w  c #633636",
"e  c #683737",
"r  c #6A3837",
"t  c #643D3B",
"y  c #6C3A39",
"u  c #75373C",
"i  c #743C39",
"p  c #793F3B",
"a  c #4C443C",
"s  c #4D493E",
"d  c #57423F",
"f  c #59493E",
"g  c #68453D",
"h  c #72423D",
"j  c #7B413B",
"k  c #292F48",
"l  c #3B2840",
"z  c #2B334D",
"x  c #313249",
"c  c #402940",
"v  c #49334D",
"b  c #722F45",
"n  c #663E59",
"m  c #524D40",
"M  c #565243",
"N  c #5C5846",
"B  c #58415F",
"V  c #6A4642",
"C  c #764E42",
"Z  c #7A4B42",
"A  c #615B47",
"S  c #6D5248",
"D  c #625E4A",
"F  c #7E5245",
"G  c #70594A",
"H  c #7C5E4F",
"J  c #67624B",
"K  c #736E54",
"L  c #747055",
"P  c #787356",
"I  c #7C7759",
"U  c #7E795B",
"Y  c #414362",
"T  c #504161",
"R  c #8A1D30",
"E  c #941E31",
"W  c #A41F34",
"Q  c #8A2334",
"!  c #922136",
"~  c #AB293D",
"^  c #B72639",
"/  c #C1273B",
"(  c #82453E",
")  c #883C57",
"_  c #C93144",
"`  c #C4354C",
"'  c #DE3347",
"]  c #874C42",
"[  c #8B4C42",
"{  c #865648",
"}  c #915345",
"|  c #9B5747",
" . c #9C5748",
".. c #975456",
"X. c #A45D4A",
"o. c #92634F",
"O. c #836552",
"+. c #8B6250",
"@. c #8D6A57",
"#. c #8F6F5D",
"$. c #976A55",
"%. c #837C5C",
"&. c #95705A",
"*. c #AB624D",
"=. c #A36C53",
"-. c #BA6C52",
";. c #BB6A55",
":. c #A97459",
">. c #BD7657",
",. c #BE7758",
"<. c #847F60",
"1. c #AC7161",
"2. c #BA7B65",
"3. c #C26E5D",
"4. c #CB6D5C",
"5. c #F37C79",
"6. c #86805E",
"7. c #858162",
"8. c #8A8564",
"9. c #8E8966",
"0. c #928C66",
"q. c #938E6A",
"w. c #9A946D",
"e. c #9E996F",
"r. c #9F9970",
"t. c #B38566",
"y. c #BE8360",
"u. c #BB8B69",
"i. c #A49E74",
"p. c #A6A175",
"a. c #ABA576",
"s. c #ADA679",
"d. c #AFA879",
"f. c #B3AC7D",
"g. c #C58965",
"h. c #C98866",
"j. c #C5936E",
"k. c #D7946A",
"l. c #D9976D",
"z. c #D68F73",
"x. c #D79474",
"c. c #D59C74",
"v. c #D99E74",
"b. c #F5827B",
"n. c #EE967C",
"m. c #F0927C",
"M. c #E1A376",
"N. c #EBA47D",
"B. c #E6AA7B",
"V. c #E8AC7D",
"C. c #B6AF81",
"Z. c #B7B082",
"A. c #B9B384",
"S. c #BCB689",
"D. c #BFB88C",
"F. c #C1BB8F",
/* pixels */
"d.f.f.f.f.C.C.d.S.f.f.f.i.U K U p.0.L L 9.A.A.A.A.S.A.Z.f.f.f.d.",
"s.f.A.A.C.C.A.S.d.f.f.f.0.% . ; q.J o . M f.f.f.f.d.d.d.f.f.a.f.",
"f.Z.S.A.A.S.A.C.A.f.f.f.0.% 7 C 0 f Z @ M f.Z.f.f.f.Z.f.f.f.d.d.",
"A.C.S.S.A.D.S.A.f.r.%.P J * h } 1 y } & 6 U U 0.d.f.f.f.f.f.f.f.",
"C.Z.S.S.S.C.A.S.f.9.$ . @ e p p i i r @       f f.Z.f.C.d.f.C.f.",
"Z.A.C.A.A.C.C.f.K a 7 4 8 u [ X.X.[ y 8 4 7 4 5 s q.Z.Z.f.Z.f.C.",
"A.C.Z.C.C.S.i.%.5 , i i i i [ X.-.X.[ [ ( i i 8 & A 0.Z.f.s.f.f.",
"C.C.A.Z.A.A.8.+ 1 i i i i i i ] *.-.-.-.| i i i y & m A.Z.f.f.f.",
"C.Z.A.Z.S.A.<.o 4 i i i i i i p [ X.-.;.*. .( i i & s A.C.C.C.C.",
"A.A.C.Z.C.A.<.O < e i y e i i i p [ *.*.X.X.( i i & s Z.C.Z.A.A.",
"C.d.f.C.f.f.<.o & 4 i 8 1 y i i i j p j ( p p i y & a A.A.S.A.f.",
"C.f.f.f.f.Z.U o @ < 4 < < 4 e i i i i i i p i e 4 + s f.A.A.A.f.",
"C.Z.A.C.C.Z.<.o @ , - - < 9 h ] ] ] ] ] ] ] ] t & ; D Z.A.A.f.f.",
"A.S.A.S.A.A.7.o @ - < * 9 =.>.,.,.,.,.3.,.,.,.F + K i.f.f.A.A.A.",
"F.A.A.F.S.S.7.o @ - - , g y.l.g.F =.l.l.:.C y.o.O %.C.f.C.f.A.F.",
"f.f.A.S.A.S.9.: & 2 v 8 V c.V.j.: H V.V.@.% t.&.O %.f.f.f.f.A.Z.",
"f.d.Z.A.f.A.f.e.s 5 u.o.( v.V.j.: H B.B.@.% u.&.O %.Z.f.A.A.A.Z.",
"Z.A.A.f.f.Z.f.f.s 5 v.g.y.M.V.n...2.V.V.2...z.#.X U d.f.f.S.D.A.",
"F.A.A.Z.A.f.A.f.N d u.v.B.V.N.N.b.m.V.V.n.5.z.O.; 6.f.f.f.D.D.F.",
"F.A.F.A.Z.Z.A.A.w.L 5 o.k.B.n.F.N.N.V.V.N.x.S m q.s.f.f.f.Z.D.D.",
"A.F.A.A.A.f.F.f.f.w.N f { 3.1.&.3.4.3.1.#.K N U F.A.f.f.F.S.f.S.",
"A.A.A.f.f.f.f.f.a.i.p.f > E b l ! W ! c # + U p.f.f.A.A.S.A.A.S.",
"A.F.A.A.f.F.f.f.J : : 8 R E 3 l ! W ! l # . ; J f.A.A.A.F.S.F.f.",
"Z.f.A.A.A.A.r.K A S S i Q ^ b v ~ / ^ v = O d V L i.A.f.A.A.A.S.",
"Z.f.A.A.Z.Z.%.O &.V.B.+.q _ ) B ` ' ` n k % t.&.X 6.S.A.A.f.f.f.",
"f.f.f.f.A.Z.%.O &.M.h.Z 2 n B Y T n n Y k $ $.F X 6.f.A.f.f.f.f.",
"f.f.f.f.C.f.w.m G #.] r 2 x z z z z z z ; , g g s 0.f.A.f.A.A.A.",
"f.d.f.f.s.C.C.f.M . . 1 w + . . o . . . , y & f f.A.A.f.A.A.S.S.",
"A.f.f.f.f.f.f.f.0.U I %.%.U P U %.I I I U 6.U 0.f.A.A.A.S.A.f.S.",
"A.f.f.f.f.Z.f.Z.Z.C.f.f.f.A.A.A.S.S.A.S.S.f.A.A.D.A.A.A.S.S.A.A.",
"f.f.f.f.f.f.f.f.f.C.f.f.f.f.A.F.S.S.A.S.D.S.S.A.A.A.S.S.f.A.A.A.",
"d.d.d.f.d.d.f.f.f.C.f.f.C.f.C.A.d.f.A.S.A.S.S.S.A.S.S.D.S.f.f.f."
};
