/* XPM */
static char *Studio_Project__22_1736866790[] = {
/* columns rows colors chars-per-pixel */
"32 32 167 2 ",
"   c #1C1625",
".  c #1C1926",
"X  c #1A192B",
"o  c #221A28",
"O  c #2A1D29",
"+  c #321D2A",
"@  c #1E2034",
"#  c #25222A",
"$  c #2B252C",
"%  c #2D292D",
"&  c #34232C",
"*  c #3B242E",
"=  c #3B2B2E",
"-  c #202337",
";  c #282232",
":  c #24283E",
">  c #3F2731",
",  c #332B30",
"<  c #3A3131",
"1  c #3D3936",
"2  c #42272F",
"3  c #412731",
"4  c #442A32",
"5  c #4A2B32",
"6  c #532E32",
"7  c #582F33",
"8  c #423535",
"9  c #4C3435",
"0  c #423B36",
"q  c #483D37",
"w  c #47303A",
"e  c #433E38",
"r  c #553434",
"t  c #5C3335",
"y  c #5F3A37",
"u  c #533D3B",
"i  c #593B3A",
"p  c #613436",
"a  c #683736",
"s  c #6D3837",
"d  c #693738",
"f  c #653D3A",
"g  c #6D3B39",
"h  c #743C3A",
"j  c #45413A",
"k  c #56423E",
"l  c #62423D",
"z  c #68433D",
"x  c #76433D",
"c  c #7C423C",
"v  c #272E46",
"b  c #292D45",
"n  c #2B334D",
"m  c #3C3143",
"M  c #2F3954",
"N  c #313A56",
"B  c #323D5A",
"V  c #692D40",
"C  c #683F5A",
"Z  c #743E59",
"A  c #7E3D58",
"S  c #364363",
"D  c #594540",
"F  c #534F40",
"G  c #584D41",
"H  c #555143",
"J  c #5B5445",
"K  c #5C5847",
"L  c #58405E",
"P  c #724942",
"I  c #6F5449",
"U  c #645D4A",
"Y  c #755549",
"T  c #79534A",
"R  c #7B5D4E",
"E  c #66614B",
"W  c #69644E",
"Q  c #6D6951",
"!  c #736E54",
"~  c #777255",
"^  c #7B765A",
"/  c #7E7A5A",
"(  c #484361",
")  c #514160",
"_  c #811E31",
"`  c #B9263A",
"'  c #81453E",
"]  c #C0364C",
"[  c #DD3247",
"{  c #E13246",
"}  c #874940",
"|  c #8C4C42",
" . c #904540",
".. c #904F44",
"X. c #845246",
"o. c #875D4E",
"O. c #945144",
"+. c #9B5748",
"@. c #955A4A",
"#. c #A35C4B",
"$. c #AB5C5E",
"%. c #856453",
"&. c #8E6552",
"*. c #996C5A",
"=. c #837D5D",
"-. c #957059",
";. c #A2604C",
":. c #AC624D",
">. c #AF6A53",
",. c #B16650",
"<. c #B56A51",
"1. c #BA6C53",
"2. c #A97156",
"3. c #B37356",
"4. c #BC7A5A",
"5. c #997A6B",
"6. c #AB7E6F",
"7. c #BB796B",
"8. c #CA6254",
"9. c #C27A6A",
"0. c #D97967",
"q. c #E77765",
"w. c #E87764",
"e. c #878262",
"r. c #8B8564",
"t. c #8C8864",
"y. c #8C8668",
"u. c #8E8969",
"i. c #908A67",
"p. c #97926A",
"a. c #9F986F",
"s. c #9D9770",
"d. c #AF8264",
"f. c #B38667",
"g. c #BC8968",
"h. c #A39D73",
"j. c #A7A074",
"k. c #AAA476",
"l. c #A6A178",
"z. c #ACA679",
"x. c #AEA87A",
"c. c #B3AC7D",
"v. c #C8835F",
"b. c #CD8761",
"n. c #C38C6A",
"m. c #D38F6A",
"M. c #C2906C",
"N. c #CD936D",
"B. c #D7956B",
"V. c #DB8573",
"C. c #D69474",
"Z. c #D69E74",
"A. c #DA9C74",
"S. c #F5857B",
"D. c #F1917A",
"F. c #E1A375",
"G. c #E3A779",
"H. c #EBA47C",
"J. c #E5AA7B",
"K. c #E8AC7D",
"L. c #AFA980",
"P. c #B6AF81",
"I. c #B7B082",
"U. c #B9B284",
"Y. c #BCB589",
"T. c #BFB88C",
"R. c #C1BA8E",
/* pixels */
"x.c.x.c.c.P.P.c.Y.c.c.c.c.c.U.I.x.c.I.U.c.U.U.U.I.U.c.U.c.c.c.x.",
"z.c.U.Y.P.P.U.Y.x.c.c.c.c.T.T.T.U.U.U.I.c.c.U.c.x.c.x.x.c.c.k.c.",
"c.P.Y.U.U.Y.Y.P.U.c.c.c.p.K K Q l.u.H H Q j.U.c.c.c.c.c.c.c.x.x.",
"U.U.Y.U.U.Y.Y.P.Y.c.c.c.~ . # 8 =.E & o 1 h.U.c.x.c.U.c.x.c.U.c.",
"P.I.Y.Y.Y.c.Y.Y.I.I.U.c.^ . f X.0 i @.5 1 a.U.c.c.U.U.c.c.c.c.c.",
"P.U.P.U.Y.c.c.c.I.i.Q Q k 2 x ..6 f +.5 % E Q ! a.c.c.P.c.c.c.U.",
"U.I.U.P.c.Y.P.c.c.K     = x h h h h h *       # =.z.c.P.c.z.c.c.",
"P.P.U.U.U.U.Y.p.k 9 6 6 p h ..#.#...h p 5 6 6 6 q W c.Y.c.c.c.c.",
"c.P.U.U.Y.P.s.E & 6 h h h h O.,.1.#.} } } h h h 2 q =.h.P.P.P.P.",
"Y.U.c.U.P.x.F > y g h h h h c ' :.1.,.,.#.c h h a r % ! P.U.U.U.",
"P.c.c.c.c.k.e & d h h h h h h ' ..#.1.1.>.+.} h h 7 o W U.U.U.c.",
"c.c.c.c.c.z.e + a h h h h h h c h O.<.<.<.<.O.h h 7   U U.Y.U.c.",
"P.P.c.c.U.z.j O 5 p h 7 7 h h V h ' | } | | ' h h 7 . E U.I.c.P.",
"Y.Y.Y.Y.Y.k.j o > 6 t 5 5 f g h h h h h h h h h s 5   E c.U.U.U.",
"R.Y.U.Y.T.L.j o > 3 3 > 3 4 p h h h h h h h h h 6 &   U c.c.U.R.",
"c.c.P.R.I.x.j o + 3 3 3 i X.@.#.;.;.;.;.;.;.;.@.5 < U t.I.c.I.U.",
"c.x.U.Y.c.z.j o > > > > P v.b.b.3.4.b.b.9.3.4.4.r j k.c.I.U.U.I.",
"P.U.U.c.c.k.j o > > > > T A.F.b.z o.F.F.g.i &.N.u j h.c.c.Y.T.U.",
"Y.Y.Y.c.U.z.Q 0 O i T i o.G.H.m.8 I K.K.f., R Z.k 0 j.c.c.T.T.R.",
"R.Y.Y.U.P.U.c.=.o %.Z.@.;.G.R.g.8 I K.K.f., R Z.k j j.c.U.U.Y.T.",
"U.Y.U.Y.U.c.Y.=.# %.G.n.N.J.K.A.$.7.K.K.C.$.9.Z.k j k.c.Y.Y.U.U.",
"U.Y.U.c.c.U.c.i.1 R M.Z.J.K.J.H.S.D.K.K.H.S.V.d.k J x.U.U.U.U.Y.",
"T.Y.Y.U.c.Y.c.k.p.J u 2.B.K.K.J.H.H.K.K.J.H.*.1 ! a.U.U.T.Y.T.U.",
"c.c.c.U.U.Y.c.a.! 1 O  .8.q.7.6.0.w.q.7.5.-.k o / c.U.c.Y.U.U.U.",
"U.c.c.R.c.U.x./ % o + _ ` { A L ] [ [ Z M X   $ / I.U.U.U.c.c.c.",
"c.c.c.c.c.c.Q k -.-.*.h V Z ) ( C Z T ( M X D -.H W x.Y.c.c.c.c.",
"c.c.c.c.c.j.j k Z.F.n.z m S S S N N B B n X Y N.k 0 j.c.c.Y.U.U.",
"c.c.c.c.x.k.j k Z.m.>.f m S S B - - v v : X z <.8 j z.c.U.U.U.Y.",
"c.c.c.c.c.x.~ U R Y f y w v b b X X @ @ ; 2 r l G ^ P.U.Y.U.I.U.",
"c.c.c.c.c.c.x.e., # & y r $ o # ; ; # o = z 9 , u.U.U.U.U.T.U.I.",
"c.c.c.c.c.c.c.h.e.e.=.=.e.=.e.y.y.e.=.y.y.r.r.t.l.U.Y.U.c.I.U.U.",
"c.c.x.c.x.x.c.c.c.c.c.c.c.c.P.I.z.c.U.T.U.Y.Y.Y.U.U.Y.T.U.c.I.c."
};
