/* XPM */
static char *Studio_Project__29_1736867942[] = {
/* columns rows colors chars-per-pixel */
"32 32 162 2 ",
"   c #1B1626",
".  c #1E1A27",
"X  c #1B1A2A",
"o  c #1E1E31",
"O  c #221A27",
"+  c #241D29",
"@  c #2B1D2A",
"#  c #3E1E2B",
"$  c #1F2135",
"%  c #24212A",
"&  c #2C222A",
"*  c #2F2C2E",
"=  c #35212B",
"-  c #3B242D",
";  c #302D2F",
":  c #252234",
">  c #3F2731",
",  c #312E31",
"<  c #382B32",
"1  c #373334",
"2  c #3D3937",
"3  c #43292F",
"4  c #452A31",
"5  c #4D2D32",
"6  c #502E33",
"7  c #443536",
"8  c #4D3033",
"9  c #413D37",
"0  c #44303D",
"q  c #413D39",
"w  c #4B3D3A",
"e  c #553134",
"r  c #5A3335",
"t  c #5A3738",
"y  c #533C3B",
"u  c #5D3C3A",
"i  c #643636",
"p  c #693738",
"a  c #643D3C",
"s  c #6C3938",
"d  c #753C3A",
"f  c #793F3B",
"g  c #4E4339",
"h  c #4D493E",
"j  c #56493E",
"k  c #63443C",
"l  c #6C423D",
"z  c #74423D",
"x  c #7C423D",
"c  c #252A41",
"v  c #292F47",
"b  c #282F48",
"n  c #283048",
"m  c #3C3346",
"M  c #2D3751",
"N  c #313A57",
"B  c #313C5A",
"V  c #6A2F42",
"C  c #743E59",
"Z  c #7A3D58",
"A  c #374464",
"S  c #534D40",
"D  c #5C4A42",
"F  c #5B5344",
"G  c #585444",
"H  c #58415E",
"J  c #664740",
"K  c #694D45",
"L  c #625245",
"P  c #675748",
"I  c #6F5349",
"U  c #7B5147",
"Y  c #72554A",
"T  c #66614B",
"R  c #6A654E",
"E  c #6D694F",
"W  c #7B604E",
"Q  c #6A6551",
"!  c #6D6A51",
"~  c #716D54",
"^  c #767256",
"/  c #7C7456",
"(  c #7B775B",
")  c #7D795D",
"_  c #494361",
"`  c #504060",
"'  c #7E7A60",
"]  c #891F32",
"[  c #BA283C",
"{  c #82453E",
"}  c #DE3347",
"|  c #8A4B41",
" . c #9A4742",
".. c #835B4E",
"X. c #935144",
"o. c #995647",
"O. c #965849",
"+. c #9F5949",
"@. c #A65F4C",
"#. c #9D634E",
"$. c #8B6958",
"%. c #936554",
"&. c #817B5D",
"*. c #9A735B",
"=. c #A7674F",
"-. c #AD644E",
";. c #A66551",
":. c #A36A52",
">. c #AE6B52",
",. c #B26750",
"<. c #B56951",
"1. c #BB6D53",
"2. c #AE7356",
"3. c #B77558",
"4. c #827C61",
"5. c #94786C",
"6. c #BC6665",
"7. c #A87B6E",
"8. c #B8796C",
"9. c #CC6154",
"0. c #C6766A",
"q. c #D87666",
"w. c #E87463",
"e. c #87815F",
"r. c #8C8662",
"t. c #8E8966",
"y. c #918B66",
"u. c #928D6A",
"i. c #9B956D",
"p. c #9E986F",
"a. c #9E9771",
"s. c #9E9870",
"d. c #B68365",
"f. c #BD8D6A",
"g. c #A29D73",
"h. c #ABA476",
"j. c #ADA679",
"k. c #AFA979",
"l. c #B3AC7D",
"z. c #C58361",
"x. c #C18E6A",
"c. c #C98E6A",
"v. c #D18C65",
"b. c #C3926D",
"n. c #D2966F",
"m. c #D8956C",
"M. c #DB8273",
"N. c #D79B71",
"B. c #DC9B75",
"V. c #F38A7B",
"C. c #F0927C",
"Z. c #E2A477",
"A. c #E4A678",
"S. c #EBA57C",
"D. c #E6AB7C",
"F. c #E8AC7D",
"G. c #B6AF80",
"H. c #B7B082",
"J. c #B9B385",
"K. c #BCB689",
"L. c #BFB88C",
"P. c #C1BA8F",
/* pixels */
"k.l.l.k.l.G.G.G.K.l.l.l.l.J.G.G.G.j.H.J.l.H.J.H.J.J.H.H.l.l.l.k.",
"j.l.J.J.G.G.J.J.k.l.l.l.s.) r.u.G.a.' ( e.h.H.l.k.l.k.k.l.l.h.l.",
"l.H.K.J.G.K.J.J.J.k.l.l.^ % % q i.( % % 2 y.H.l.l.l.l.l.l.l.k.k.",
"H.H.K.K.J.L.L.G.J.l.l.l.!   8 k F D l < 1 u.J.l.l.l.H.l.k.l.l.H.",
"G.H.J.K.L.G.J.J.H.h.g.g.R O x o.> t <.t ; &.h.p.h.H.H.l.k.l.G.l.",
"H.K.G.J.J.G.G.l.G.E q q 7 r z { i s { 3 O 1 9 9 &.l.H.G.l.G.l.G.",
"J.H.J.G.l.K.G.a.&.w @ # 5 d { | | { z 5 = = = = F e.h.H.l.j.l.l.",
"l.G.J.H.K.J.K.~ % 5 s p d d o.,.<.+.d d s s s s 3 1 u.J.G.l.l.G.",
"H.G.J.H.K.g.~ g 4 i d d d d | @.,.-.o.o.X.x d d r 4 j &.l.l.H.H.",
"K.J.G.H.H.t., > d d d d d d d { @.<.1.1.,.| x d z i @ h l.H.J.J.",
"G.l.l.l.k.t.* - d d d d d d d f { @.1.1.<.-.X.d d i @ h l.K.J.l.",
"l.l.l.l.G.t.* # i s d i s d d d d { @.@.@.@.X.f d i @ j G.J.H.l.",
"H.H.l.l.J.y., @ 4 i s 6 r d d d d f x x x x x d d i @ h l.H.G.l.",
"K.K.J.J.K.y., @ 3 6 6 3 5 r p d d d d d d z d d i 5 + h h.K.J.J.",
"P.K.H.P.P.u., @ > > > > 4 7 p x x x x x x x x x r = % G k.l.J.L.",
"l.l.H.P.H.u., @ > > > > V #.=.>.>.>.>.,.>.>.>.>.i ; T t.H.l.J.H.",
"l.k.J.K.l.y.; + > > > > U v.v.z.:.2.v.v.z.:.2.v.J ; t.l.H.J.H.H.",
"l.J.J.l.l.t.; @ > > > > ..A.A.x.y Y A.D.x.y Y A.I ; r.l.l.K.L.K.",
"L.K.K.l.J.p.! 9 @ K W a %.F.F.x.7 I F.F.b.7 L D.Y ; r.l.H.K.L.P.",
"P.J.K.J.H.J.J.!   *.n.O.>.D.F.x.y Y F.F.b.y Y A.Y ; r.l.l.H.K.P.",
"K.K.J.K.J.H.J.!   *.Z.c.n.F.F.B.6.0.F.F.B.6.0.D.I ; y.l.P.K.l.K.",
"J.K.J.l.l.H.l.&.2 W f.N.Z.F.F.S.V.C.F.F.S.V.M.d.L j p.J.K.H.J.P.",
"K.K.J.J.H.J.H.h.i.S y 2.m.F.F.D.S.A.F.D.F.S.7.- R s.l.J.P.P.P.l.",
"l.J.l.J.J.J.l.u.P 1 #  .9.w.8.7.q.w.w.8.5.$.j O ! l.J.l.J.l.J.K.",
"J.l.J.K.l.l.h.E O O - ] [ } Z H } } } Z N o . + E l.J.H.J.l.l.l.",
"l.l.l.l.K.p.P j *.7.%.s V Z _ _ ` C C ` N o w *.L G i.J.l.l.l.l.",
"l.l.l.l.l.e.1 I F.Z.d.u m A A A B B B B M o J B.K * r.H.l.K.H.K.",
"l.l.l.l.l.t.; I F.v.;.t m A A B $ $ b n c X u 3.k * y.G.J.J.J.K.",
"l.l.l.l.l.g.T L $.U l t 0 v v c o X $ $ : - e l j Q g.J.K.H.H.J.",
"L.l.l.l.l.l.k.~ O . & i 8 . . . X X . . @ i e O ~ K.J.J.J.L.H.J.",
"l.l.l.l.l.k.l.i.^ ^ / / / ^ ( ' ) ( ( ( 4.4.&.( g.J.K.J.G.G.J.J.",
"k.l.k.k.l.k.l.l.l.H.l.l.l.l.G.J.k.l.J.K.J.K.K.K.J.J.K.K.K.l.H.l."
};
