/* XPM */
static char *Studio_Project__28_1736867857[] = {
/* columns rows colors chars-per-pixel */
"32 32 169 2 ",
"   c #1C1626",
".  c #1B1926",
"X  c #1A1A2B",
"o  c #1D1F31",
"O  c #201727",
"+  c #211A27",
"@  c #231D28",
"#  c #2A1E2A",
"$  c #25202B",
"%  c #2A232C",
"&  c #2D292E",
"*  c #35212C",
"=  c #3B252E",
"-  c #292131",
";  c #22253B",
":  c #25283F",
">  c #3F2731",
",  c #342C31",
"<  c #3E2A36",
"1  c #343032",
"2  c #3B3534",
"3  c #3B3835",
"4  c #49292F",
"5  c #56222F",
"6  c #412731",
"7  c #442A31",
"8  c #4A2B31",
"9  c #502D33",
"0  c #413335",
"q  c #4F3335",
"w  c #423E37",
"e  c #4D3A36",
"r  c #433F38",
"t  c #4B3A3A",
"y  c #543236",
"u  c #593133",
"i  c #553A39",
"p  c #652231",
"a  c #742C3A",
"s  c #643636",
"d  c #6C3937",
"f  c #623B3A",
"g  c #6C3939",
"h  c #753C3A",
"j  c #783E3B",
"k  c #45413A",
"l  c #4C413B",
"z  c #4E4A3F",
"x  c #54443D",
"c  c #58433E",
"v  c #69473F",
"b  c #75453F",
"n  c #7D423D",
"m  c #252D45",
"M  c #332D41",
"N  c #2A314A",
"B  c #2F3854",
"V  c #303B58",
"C  c #4C3242",
"Z  c #4C354F",
"A  c #633242",
"S  c #6B334B",
"D  c #633F5C",
"F  c #773E58",
"G  c #364362",
"H  c #5A4E41",
"J  c #5D5445",
"K  c #5F5B4B",
"L  c #58415F",
"P  c #664743",
"I  c #6A4A42",
"U  c #754941",
"Y  c #754C42",
"T  c #6F5449",
"R  c #645F4A",
"E  c #765749",
"W  c #7B5C4E",
"Q  c #64405D",
"!  c #66614D",
"~  c #6A644E",
"^  c #6F694F",
"/  c #7E604F",
"(  c #6E6951",
")  c #7E6050",
"_  c #726E53",
"`  c #767155",
"'  c #7A755A",
"]  c #7E7959",
"[  c #444362",
"{  c #4A4261",
"}  c #952D3C",
"|  c #A72B39",
" . c #AB2B3A",
".. c #C5293D",
"X. c #C9293D",
"o. c #82453F",
"O. c #AB2D41",
"+. c #B2384F",
"@. c #CC344A",
"#. c #D03448",
"$. c #8B4C42",
"%. c #914F43",
"&. c #875145",
"*. c #8D5446",
"=. c #855B4D",
"-. c #925145",
";. c #995647",
":. c #985947",
">. c #995948",
",. c #945256",
"<. c #A25C4A",
"1. c #8D604F",
"2. c #866553",
"3. c #8F6450",
"4. c #976954",
"5. c #817357",
"6. c #827D5D",
"7. c #AB624D",
"8. c #B1664F",
"9. c #A96A54",
"0. c #B36851",
"q. c #BB6D53",
"w. c #A7715E",
"e. c #B67659",
"r. c #AD6E61",
"t. c #B27464",
"y. c #C57E5B",
"u. c #85805E",
"i. c #8D8864",
"p. c #928B65",
"a. c #938E69",
"s. c #97916B",
"d. c #9B946D",
"f. c #9B9571",
"g. c #9E9970",
"h. c #B58767",
"j. c #BB8263",
"k. c #BC8369",
"l. c #A09A6F",
"z. c #A49E73",
"x. c #A6A176",
"c. c #ABA576",
"v. c #ABA57A",
"b. c #AFA879",
"n. c #B3AC7D",
"m. c #C9815D",
"M. c #C58567",
"N. c #C28E6B",
"B. c #D38166",
"V. c #C6936F",
"C. c #CD936C",
"Z. c #D6926C",
"A. c #D9996F",
"S. c #CF9271",
"D. c #D39872",
"F. c #DD9D71",
"G. c #E88978",
"H. c #F3877B",
"J. c #ED9E7C",
"K. c #D7A076",
"L. c #EBA27C",
"P. c #E6AA7B",
"I. c #E9AC7D",
"U. c #B6AF81",
"Y. c #B7B082",
"T. c #B9B285",
"R. c #BCB589",
"E. c #BFB98C",
"W. c #C1BB8F",
/* pixels */
"b.n.n.n.n.n.U.U.R.n.n.n.a.~ ! ` l.i.! ! ` v.T.T.T.R.T.Y.n.n.b.b.",
"c.n.T.T.U.U.T.T.c.n.n.n.` . + 2 i.~ # . 3 g.n.n.n.b.b.b.n.n.c.n.",
"n.U.R.T.U.R.T.U.T.n.n.n.' . i U l c &.7 3 d.Y.n.b.n.n.n.n.n.b.b.",
"T.T.R.R.T.E.R.T.T.s.] ] J * n *.8 f <.8 & ` 6.u.l.n.T.n.b.n.T.n.",
"U.Y.T.R.R.U.T.E.Y.R @ @ > g h j d h n =   . $ & 6.U.Y.n.n.n.n.n.",
"Y.R.U.T.T.U.U.a.R e 8 8 9 h $.;.<.o.h u 4 8 8 8 z ` b.U.n.n.n.Y.",
"T.Y.T.U.n.T.z._ % 9 h h j h ;.0.q.<.o.n n h h g = w p.c.n.b.n.n.",
"U.U.T.U.R.v.K 0 u g h h h h n %.8.0.7.7.:.n h h s 9 2 ' T.n.n.n.",
"n.Y.T.Y.R.x.k * g h h h h h h n ;.7.q.q.8.-.o.j h u   ~ U.U.U.Y.",
"R.Y.U.Y.Y.v.k * g h h h h h h h j -.q.q.q.q.;.d h u O ! U.U.T.T.",
"U.b.n.U.n.x.t # 9 s h u s h h h h o.%.-.-.-.o.b h u O ~ T.R.T.n.",
"n.n.n.n.n.v.3 @ > y s 8 8 g h h h h h h j h h h d 9 O R T.R.Y.n.",
"Y.Y.U.n.T.z.k @ > 6 7 6 6 8 s h h h h h h h h h y =   ! T.U.n.n.",
"T.R.T.T.T.v.t + = > > > y U *.>.>.>.>.>.:.:.:.*.y , z u.n.T.T.T.",
"W.R.T.W.W.v.t @ > > > > U y.y.y.y.m.m.m.m.y.m.e.q k z.n.n.n.R.W.",
"n.n.T.W.T.v.k @ = > > > E A.F.M.Y 3.F.F.j.v 4.C.i k z.n.U.n.T.Y.",
"n.n.T.R.n.b.K 1 * e P y =.P.I.N.2 T I.I.h., W D.H r z.n.Y.Y.T.Y.",
"n.U.T.n.n.n.x.^ $ W N.*.4.P.I.N.0 T I.I.h., W F.H r l.n.U.R.W.T.",
"R.T.R.T.T.n.Y.] @ 2.P.t.M.P.I.A.,.r.I.I.S.,.t.D.C 3 z.U.U.E.E.W.",
"W.T.T.T.Y.T.R.u.& 2.D.P.P.P.I.J.H.H.I.I.J.H.G.V.H H z.n.U.T.R.R.",
"R.T.T.T.Y.Y.R.z.6.J I e.F.W.J.I.L.L.W.J.L.J.w.H ~ p.n.n.R.T.T.T.",
"R.R.T.n.n.Y.n.x.6.k $ Y 9.y.B.k.B.B.B.h.h.j.P @ 6.U.T.Y.R.T.T.W.",
"R.R.R.T.Y.R.n.u.& . . @ 5 | A C }  .| A 1 - @ @ 6.U.U.T.W.R.R.T.",
"T.n.T.T.R.n.` J / 2.E 0 p ..S Z O.X...S N X t ) J _ n.T.T.T.T.T.",
"n.n.T.T.n.c.w c K.P.C.I a @.F D +.#.#.Q B o E D.i k v.Y.T.n.Y.n.",
"n.n.n.n.T.c.k c K.Z.e.i C D { [ L Q Q [ B X v e.q k x.T.n.n.n.n.",
"n.n.n.n.U.c.( H 4.1.b 7 M G G G B B B V N X 8 b x ! v.Y.Y.R.Y.T.",
"T.b.n.n.v.Y.b.] % .     ; G G V o $ m m ; .   $ ] Y.Y.Y.Y.Y.R.R.",
"n.n.n.n.n.n.n.g._ ^ ! e < : m ; X X o X - 7 x ` g.Y.T.Y.R.Y.Y.T.",
"W.n.n.n.n.Y.n.n.U.T.l.E c 1 , 1 1 1 1 1 3 v 5.T.R.R.T.T.R.R.Y.T.",
"n.b.n.n.n.n.n.n.n.n.b.s.p.p.s.f.d.s.s.f.f.f.v.T.T.R.R.R.n.Y.T.T.",
"b.b.b.n.b.b.n.n.n.Y.n.n.n.n.U.T.b.n.R.R.T.R.R.R.T.T.R.R.R.U.T.b."
};
