/* XPM */
static char *Studio_Project__30_1737039397[] = {
/* columns rows colors chars-per-pixel */
"32 32 170 2 ",
"   c #1A1624",
".  c #1D1826",
"X  c #1C1A2A",
"o  c #221721",
"O  c #251B26",
"+  c #2C1C23",
"@  c #231C29",
"#  c #2A1D2A",
"$  c #321E24",
"%  c #1F2236",
"&  c #2F222C",
"*  c #322126",
"=  c #3B2427",
"-  c #34212C",
";  c #3B242B",
":  c #3D292B",
">  c #292435",
",  c #23263C",
"<  c #3F2731",
"1  c #352A31",
"2  c #3B2C34",
"3  c #392C3C",
"4  c #461B2B",
"5  c #462A2D",
"6  c #4D2C2C",
"7  c #42312F",
"8  c #4F342E",
"9  c #56342E",
"0  c #5A372F",
"q  c #412731",
"w  c #432931",
"e  c #492B32",
"r  c #522E31",
"t  c #552C3A",
"y  c #433234",
"u  c #4B3333",
"i  c #553336",
"p  c #5A3133",
"a  c #533C35",
"s  c #5C3939",
"d  c #642734",
"f  c #613536",
"g  c #673937",
"h  c #6A3A35",
"j  c #673738",
"k  c #633C3A",
"l  c #6D3C39",
"z  c #743D39",
"x  c #5B4239",
"c  c #644136",
"v  c #6D4335",
"b  c #684238",
"n  c #6E4A3B",
"m  c #714537",
"M  c #75443A",
"N  c #7D453D",
"B  c #77483D",
"V  c #292E46",
"C  c #2A314A",
"Z  c #343E5D",
"A  c #472E46",
"S  c #533D5A",
"D  c #682A41",
"F  c #36415F",
"G  c #374464",
"H  c #5E4742",
"J  c #684A44",
"K  c #774D44",
"L  c #794B42",
"P  c #6E5449",
"I  c #795945",
"U  c #715048",
"Y  c #7C574C",
"T  c #7B5C4D",
"R  c #4B4261",
"E  c #9B253B",
"W  c #A52337",
"Q  c #B42337",
"!  c #82463E",
"~  c #844A3F",
"^  c #853A54",
"/  c #883951",
"(  c #913B55",
")  c #CE2E41",
"_  c #DF2F42",
"`  c #C73247",
"'  c #844D41",
"]  c #8C4D42",
"[  c #875045",
"{  c #8A5544",
"}  c #8D5846",
"|  c #895549",
" . c #925445",
".. c #995646",
"X. c #945847",
"o. c #9B5B46",
"O. c #945B4B",
"+. c #995C48",
"@. c #8E5F51",
"#. c #9A5F57",
"$. c #A25C49",
"%. c #AD535D",
"&. c #B55C54",
"*. c #B95A52",
"=. c #95624D",
"-. c #94694D",
";. c #8B6457",
":. c #916253",
">. c #916B56",
",. c #9C6955",
"<. c #9A735C",
"1. c #A7634A",
"2. c #A86C4D",
"3. c #A26854",
"4. c #B36851",
"5. c #B86E50",
"6. c #A2735D",
"7. c #AE735D",
"8. c #A87B5F",
"9. c #B47253",
"0. c #BB7557",
"q. c #B27B5F",
"w. c #BE7C5D",
"e. c #B66162",
"r. c #A47A60",
"t. c #A97E62",
"y. c #B57F60",
"u. c #B97C60",
"i. c #C25B53",
"p. c #C37D58",
"a. c #C87B6B",
"s. c #B7825D",
"d. c #BE8264",
"f. c #BD8862",
"g. c #B68269",
"h. c #BD8B70",
"j. c #CB835E",
"k. c #C68664",
"l. c #CA8D65",
"z. c #C28569",
"x. c #C48B6A",
"c. c #CA8D6B",
"v. c #D38E67",
"b. c #CD9063",
"n. c #C3916D",
"m. c #CB936E",
"M. c #D29269",
"N. c #D99869",
"B. c #D38C72",
"V. c #C99372",
"C. c #CC9979",
"Z. c #D69E73",
"A. c #DB9E71",
"S. c #F3867B",
"D. c #EE9A7C",
"F. c #DCA175",
"G. c #DDA77B",
"H. c #E0A175",
"J. c #E9A67C",
"K. c #E5A97B",
"L. c #E9AC7D",
"P. c #C5A082",
"I. c #CBA683",
"U. c #CFA985",
"Y. c #CDAE8E",
"T. c #D8B08D",
"R. c #DFB88F",
"E. c #D1B391",
"W. c #DBBC97",
"Q. c #E0C09A",
/* pixels */
"z.z.z.z.z.z.z.z.z.z.z.z.z.z.z.z.z.z.z.z.d.z.z.z.z.z.z.z.z.z.z.z.",
"z.x.V.C.C.C.V.c.c.c.c.c.x.y.q.g.k.f.q.q.d.c.c.c.c.m.V.C.C.V.n.z.",
"z.V.T.Q.Q.R.G.N.A.A.N.A.q.a 7 x f.-.7 7 I F.N.A.A.G.R.Q.W.T.V.z.",
"d.V.T.W.E.I.V.l.l.l.l.l.-.O : a n c i O a l.l.l.l.m.I.E.W.T.V.d.",
"9.a.V.h.6.:.O.} X.} [ [ b O M ..1 k $.w q { [ } } O.:.<.h.V.a.9.",
"5.0.k.u.O.N l g j r + + $ e z ' s l ' $ o + $ $ f l N +.u.x.0.5.",
"5.p.M.b.9. .k e $ $ $ $ e z ! ] ] ! z q $ $ - $ * i  .9.l.M.p.5.",
"5.p.N.N.p.+.s ;   - z z z z +.9.5...z z z z z t . = o.p.N.N.p.5.",
"5.0.N.N.j.~ 8 o = p z z z z ! } 4.&.$.$.] z z j r * 9 9.N.N.p.5.",
"5.j.N.N.j.1.= o 0 m z z z z z E $.4.5.0.$.] z z z q * 2.N.N.p.5.",
"5.0.N.N.p.~ = . p z z z z z z z z ..4.i.5.4.] z z = * 2.N.N.p.5.",
"5.j.N.N.p.-.=   5 f z j f z z z z '  .......! z z q * 2.N.N.p.5.",
"5.j.N.N.j.~ =   $ e j t e j z z z z z z z z z z h = * 2.N.N.p.5.",
"5.0.N.N.j.1.=   - w e q q e f z z z z z z z z j e & * 2.N.N.p.5.",
"5.j.b.N.j.o.:   - < < < u K } +.$.$.$...+.+.o.L - + 0 9.N.N.p.5.",
"5.s.b.b.5.~ 6   - < < < D s.j.j.0.p.k.k.j.9.j.=.. 5 X.9.b.N.0.5.",
"9.0.k.w.O.[ 0   & < < w J M.A.c.D >.F.F.6.u q.<.X 0 ~ =.w.k.0.9.",
"0.w.V.h.<.,.{ 8 1 u Y k K Z.L.c.2 T L.L.<.. 8.s.X n ,.6.h.m.p.0.",
"d.V.E.Q.E.U.Z.b.i H K.3.O.F.J.l.y T L.L.<.X 8.r.& T U.E.W.T.V.u.",
"7.g.C.Y.Y.I.m.d.u H K.m.c.K.R.A.e.k.L.L.B.%.B.g.. I I.Y.Y.P.y.u.",
"' | @.:.:.:.O.{ 8 a r.m.F.K.L.J.S.D.J.J.D.S.z.T : b :.:.;.@.| ] ",
"z M ! N v l N ' N 9 O @.v.K.L.L.L.L.R.L.L.J.J = m N l v L ! z z ",
"z ! o. .k f { 1.c :   y N *.#.;.&.i.*.;.T P 1 = o. .k f  .o.' z ",
"z ~ 1.+.s i B m 8 y y - 4 E D A E Q W A ,   1 8 m B i s O.$.' z ",
"z ~ 1.+.s w = O >.C.V.U d ) / S ` _ ) S C   >.>.# = w s O.1.~ z ",
"z ~ 1.+.s : + @ t.H.M.K t / S R [ ( ^ R C   :.,.@ + 5 s +.1.' m ",
"m ~ 1.+.s e : # >.f.1.k 3 G G G G Z G F C   B B O = e s +.1.~ z ",
"z ~ 1.+.s 5 r 6 : y : + > F G Z , , C C %   & = 6 r e s +.1.~ z ",
"M ~ 1.O.s q e e * + + * 1 V V V X X % % & : + $ e e w s o.1.~ z ",
"z ~ 1.o.s e i s s s s 6 p .             = z 6 s s i e s +.1.~ z ",
"z ~ 1.+.s i ' +.=.o.o.~ m v v v v l k l m m ~ =.O.[ i s +.$.~ z ",
"z ~ 1.+.s s +.9.5.5.5.5.9.5.5.5.5.5.5.9.5.5.0.5.5.O.s s o.1.' m "
};
