/* XPM */
static char *Studio_Project__23_1736866907[] = {
/* columns rows colors chars-per-pixel */
"32 32 159 2 ",
"   c #171425",
".  c #1A1625",
"X  c #1C1926",
"o  c #211727",
"O  c #221827",
"+  c #211D29",
"@  c #2B1C29",
"#  c #2E232C",
"$  c #2E2A2E",
"%  c #34222D",
"&  c #222539",
"*  c #3F2731",
"=  c #352E31",
"-  c #352838",
";  c #3D3334",
":  c #3C3837",
">  c #4C192A",
",  c #44272E",
"<  c #402731",
"1  c #442B32",
"2  c #4B2B32",
"3  c #532F34",
"4  c #463433",
"5  c #4D3133",
"6  c #4A393A",
"7  c #523334",
"8  c #5D3234",
"9  c #513C38",
"0  c #642637",
"q  c #692030",
"w  c #663636",
"e  c #683737",
"r  c #623E3C",
"t  c #6D3A39",
"y  c #753C3A",
"u  c #783E3B",
"i  c #444139",
"p  c #4E4A3F",
"a  c #5E403B",
"s  c #5B483E",
"d  c #67413C",
"f  c #6C443E",
"g  c #76443E",
"h  c #7E433D",
"j  c #262B42",
"k  c #2C334D",
"l  c #4A3B58",
"z  c #5D3650",
"x  c #78334D",
"c  c #733E5A",
"v  c #3B4463",
"b  c #534E41",
"n  c #5F4B42",
"m  c #565243",
"M  c #5E5947",
"N  c #5E5B4A",
"B  c #5C405E",
"V  c #654E45",
"C  c #694843",
"Z  c #754F46",
"A  c #645445",
"S  c #695047",
"D  c #635E4A",
"F  c #7C5546",
"G  c #755449",
"H  c #77594C",
"J  c #795B4D",
"K  c #66624D",
"L  c #6A644E",
"P  c #77654E",
"I  c #686351",
"U  c #6F6B52",
"Y  c #726D54",
"T  c #767256",
"R  c #7B765A",
"E  c #434362",
"W  c #4B4261",
"Q  c #A31E33",
"!  c #8F2235",
"~  c #962437",
"^  c #A62134",
"/  c #B12237",
"(  c #CE2B3E",
")  c #82463E",
"_  c #85483F",
"`  c #B22F43",
"'  c #B9354C",
"]  c #A33951",
"[  c #C12D40",
"{  c #8B4D42",
"}  c #80404C",
"|  c #8C5044",
" . c #86564D",
".. c #8D594B",
"X. c #955446",
"o. c #9F5A49",
"O. c #935254",
"+. c #A25C4A",
"@. c #97604C",
"#. c #8D6255",
"$. c #9B6B53",
"%. c #817D5D",
"&. c #9B755C",
"*. c #A5614D",
"=. c #A9614C",
"-. c #B66A51",
";. c #BB6D53",
":. c #A57259",
">. c #AF785C",
",. c #B07054",
"<. c #B17A5D",
"1. c #BF7858",
"2. c #AE7062",
"3. c #A37C62",
"4. c #B37D67",
"5. c #C16553",
"6. c #C17A59",
"7. c #CC7A62",
"8. c #D17A62",
"9. c #F8777A",
"0. c #8A8464",
"q. c #8F8964",
"w. c #918B66",
"e. c #938E6A",
"r. c #98926D",
"t. c #9E986F",
"y. c #9D9771",
"u. c #9F9971",
"i. c #B38666",
"p. c #BB8062",
"a. c #A39D73",
"s. c #A7A175",
"d. c #AEA776",
"f. c #ACA578",
"g. c #AFA879",
"h. c #B3AC7D",
"j. c #C78865",
"k. c #C2846B",
"l. c #C3916D",
"z. c #C8936E",
"x. c #D7956B",
"c. c #DA986E",
"v. c #D59874",
"b. c #F3877B",
"n. c #E39077",
"m. c #ED9C7C",
"M. c #D7A075",
"N. c #DCA276",
"B. c #E0A175",
"V. c #E2A679",
"C. c #EBA47C",
"Z. c #E6AA7B",
"A. c #E9AC7D",
"S. c #B6AF80",
"D. c #B7B082",
"F. c #B9B284",
"G. c #BCB689",
"H. c #BFB88C",
"J. c #C1BB8F",
/* pixels */
"g.h.g.S.h.S.S.S.G.h.h.h.h.G.F.D.g.g.F.F.h.F.D.D.F.G.F.F.h.h.g.g.",
"d.h.S.G.S.S.F.F.g.h.g.h.s.q.0.e.S.y.0.R w.S.S.h.g.g.g.g.h.h.d.h.",
"h.S.G.F.S.G.G.S.F.g.h.h.0.$ + : y.Y + + m h.D.h.h.h.h.h.h.h.d.h.",
"F.F.G.G.G.H.G.S.F.w.s p i X 4 d b b f # $ m m U s.S.h.h.g.h.h.S.",
"S.D.F.G.G.S.F.D.t.D @ @ @ @ g *.7 f +.7 @ @ @ 4 %.a.S.S.g.h.S.g.",
"D.G.S.F.F.S.S.a.p , w w w e X.-.+.X.h y w w e 7 = Y D.S.h.S.h.F.",
"F.D.F.S.h.G.0.N 4 3 y y y g _ +.-.=.X.X.{ y y e 2 6 Y a.h.g.h.h.",
"h.S.F.D.G.F.K o 8 y y y y y y ) +.;.;.;.+.h u y y , $ e.S.h.h.h.",
"h.D.F.D.G.F.K O 8 y y y y y y u ) o.;.;.-.=._ y y , $ e.h.D.h.D.",
"G.F.S.F.D.D.K o 3 e y e w y y y y { +.+.+.+._ y y , $ e.D.D.G.F.",
"S.h.h.h.h.D.D . % 3 y 3 2 y y y y y y y y y y g y , $ e.F.G.D.h.",
"h.g.h.h.h.F.D o % < 3 < , 5 w y y y y y y y y t 7 % $ w.F.G.F.h.",
"D.D.D.h.D.D.D o % < * * 5 a h | { { | | | | | g * = p a.D.F.h.h.",
"F.G.F.F.J.D.D . % < * * r ,.6.6.6.6.6.6.1.6.6.@.# M s.h.h.F.F.F.",
"J.G.F.J.J.J.D . % * * * f z.x.j.F $.c.c.<.f >.:.# D h.h.D.h.F.J.",
"h.h.F.J.S.F.T = * 1 z 7 Z M.A.l.; H A.A.&.X &.i.% D h.h.h.h.D.F.",
"h.h.D.G.h.F.f.0.; V z.....N.A.l.4 H A.A.:.. &.i.# I S.h.S.F.D.S.",
"S.D.F.S.h.h.D.t.; V A.p.p.V.A.v.O.2.A.A.k.} p.i.# D h.h.S.G.H.G.",
"F.G.G.D.G.h.D.a.6 n N.V.Z.Z.A.C.b.b.A.A.m.9.n.3.= I h.h.D.H.H.H.",
"J.F.F.F.D.D.F.h.q.K 9 :.x.A.Z.C.m.C.A.A.C.m.#.b R u.S.h.h.F.G.H.",
"G.G.F.G.D.D.y.T T s , _ 5.8.4.:.7.7.6.4.3.&.6 $ Y r.D.h.H.F.F.G.",
"F.F.F.h.h.D.K .   > Q Q Q Q 0 l ! ^ ~ z & . . . . K D.D.G.D.F.G.",
"H.F.G.F.a.N A &.&. .q ~ / ( x l ` [ [ z j   S &.&.A M s.H.G.H.D.",
"D.D.D.F.e.$ J Z.B.:., q ~ ' c W ] ' ' B k . &.V.N.G $ w.G.F.F.G.",
"D.h.F.F.e.= J V.j.X.* @ - l v v E W W v k   &.N.6.d = w.F.D.h.h.",
"h.h.h.h.s.Y A J f s L 9 1 & j j j j j & - 2 C G d s Y s.h.h.h.h.",
"h.h.h.h.D.h.T $ $ K h.P s = $ $ $ $ $ $ 4 f 4 $ $ Y h.D.h.G.D.F.",
"h.h.g.h.h.h.a.w.r.s.h.a.w.r.w.q.e.q.q.q.q.e.w.q.w.s.F.h.F.F.H.F.",
"F.h.h.h.h.h.h.h.h.h.G.G.h.h.h.h.F.h.F.h.h.h.D.h.S.D.F.F.G.D.D.F.",
"F.h.h.h.h.h.h.D.G.h.h.h.h.G.G.h.H.G.F.H.G.D.G.F.G.G.F.F.G.G.F.D.",
"h.h.h.h.h.h.h.h.h.h.h.h.h.h.G.J.J.F.F.G.H.G.G.F.F.G.G.F.S.D.F.D.",
"g.d.g.h.g.g.h.h.h.F.h.h.h.h.h.F.d.h.F.G.D.G.G.G.F.F.G.G.G.h.D.h."
};
