/* XPM */
static char *Studio_Project__26_1736867279[] = {
/* columns rows colors chars-per-pixel */
"32 32 168 2 ",
"   c #1A1525",
".  c #1D1A27",
"X  c #1E1E31",
"o  c #251A27",
"O  c #261C29",
"+  c #2A1D2A",
"@  c #2C252D",
"#  c #2F2C2F",
"$  c #31232D",
"%  c #3D252E",
"&  c #312D2F",
"*  c #3B2A2F",
"=  c #222236",
"-  c #2A273A",
";  c #3F2731",
":  c #322E31",
">  c #3D2E33",
",  c #3C3636",
"<  c #3C3937",
"1  c #581C2D",
"2  c #46292F",
"3  c #432631",
"4  c #432B32",
"5  c #4B2B31",
"6  c #5C2532",
"7  c #542F34",
"8  c #5E2830",
"9  c #433336",
"0  c #4B3335",
"q  c #413C37",
"w  c #493738",
"e  c #423E38",
"r  c #493B3A",
"t  c #543436",
"y  c #5C3235",
"u  c #513439",
"i  c #583738",
"p  c #523C39",
"a  c #732B3A",
"s  c #653636",
"d  c #6C3937",
"f  c #6C3A39",
"g  c #753C3A",
"h  c #783F3B",
"j  c #434138",
"k  c #4D423A",
"l  c #4E4B3F",
"z  c #57443F",
"x  c #58433F",
"c  c #5E4A3E",
"v  c #6C443F",
"b  c #76473F",
"n  c #7E433D",
"m  c #272D45",
"M  c #303954",
"N  c #343F5C",
"B  c #473048",
"V  c #583F5B",
"C  c #642D45",
"Z  c #7B3B55",
"A  c #7E3D58",
"S  c #4F4B40",
"D  c #534E41",
"F  c #5A4A49",
"G  c #555244",
"H  c #595445",
"J  c #5B405E",
"K  c #644B42",
"L  c #694E45",
"P  c #764942",
"I  c #7C4B4D",
"U  c #625546",
"Y  c #6A5147",
"T  c #6F5449",
"R  c #635C48",
"E  c #7F5D4E",
"W  c #6F4F51",
"Q  c #65614D",
"!  c #6A664E",
"~  c #6D684E",
"^  c #76614C",
"/  c #6B6551",
"(  c #6E6950",
")  c #726C53",
"_  c #777255",
"`  c #7B7559",
"'  c #494261",
"]  c #8A2233",
"[  c #992438",
"{  c #AE2135",
"}  c #BB2539",
"|  c #A5353C",
" . c #81453E",
".. c #8F3B55",
"X. c #C13449",
"o. c #E22F43",
"O. c #E23043",
"+. c #814C42",
"@. c #824D4F",
"#. c #815748",
"$. c #925345",
"%. c #9A5646",
"&. c #9E5949",
"*. c #875E50",
"=. c #A74A4B",
"-. c #B34043",
";. c #B94848",
":. c #A35D4A",
">. c #8A6755",
",. c #976751",
"<. c #956854",
"1. c #966358",
"2. c #837E5E",
"3. c #98725B",
"4. c #A6624D",
"5. c #AA634E",
"6. c #B1674F",
"7. c #A96F57",
"8. c #B36750",
"9. c #B36851",
"0. c #BA6C53",
"q. c #A8765D",
"w. c #B0775C",
"e. c #BD7A5B",
"r. c #C27B5A",
"t. c #C47D6A",
"y. c #E87875",
"u. c #868162",
"i. c #8B8662",
"p. c #8E8965",
"a. c #908B66",
"s. c #928C69",
"d. c #96916B",
"f. c #9A946C",
"g. c #9C9770",
"h. c #9F9972",
"j. c #B28666",
"k. c #A29B6F",
"l. c #A39D73",
"z. c #A59F7A",
"x. c #A6A076",
"c. c #ACA577",
"v. c #A6A178",
"b. c #ABA57A",
"n. c #AFA879",
"m. c #B3AC7D",
"M. c #C38664",
"N. c #C58965",
"B. c #D08865",
"V. c #C1906C",
"C. c #D9976D",
"Z. c #CE9571",
"A. c #D39D74",
"S. c #DB9D74",
"D. c #E88377",
"F. c #E19D74",
"G. c #EF967C",
"H. c #EB9D7C",
"J. c #E2A679",
"K. c #EAA57C",
"L. c #E6AB7C",
"P. c #E8AC7D",
"I. c #B5AE81",
"U. c #B7B082",
"Y. c #B9B385",
"T. c #BCB589",
"R. c #BFB88C",
"E. c #C1BB8F",
/* pixels */
"n.m.n.m.m.I.I.m.T.m.m.m.m.U.Y.I.m.m.U.Y.m.Y.Y.Y.Y.T.Y.Y.m.m.m.n.",
"c.m.Y.Y.I.I.Y.T.n.m.m.m.c.h.l.z.I.b.g.f.h.n.m.m.n.n.n.m.m.m.c.m.",
"m.I.T.Y.U.T.T.I.Y.m.m.m.` < < G l.u.< , D d.U.m.m.m.m.m.m.m.n.n.",
"Y.Y.T.T.U.E.T.U.m.p._ _ G   * r / U u + @ Q ` ` d.m.m.m.n.m.m.m.",
"I.U.U.T.T.m.T.T.m.H o .     b $.> i 9.i   . . . ( I.m.m.m.m.m.m.",
"U.T.U.T.T.I.m.i.H 0 5 5 5 5 $.6.+.P $.f 5 5 5 5 k ! l.Y.m.m.m.Y.",
"Y.U.U.I.m.I.k.R o 7 g g g g %.8.0.:. . .n g g g 2 & ` l.m.n.m.m.",
"m.I.T.U.T.f.D 9 y d g g g g h $.8.8.5.:.&. .g g s y , ! m.m.m.m.",
"m.U.U.Y.T.s.: % g g g g g g g n =.5.r.0.8.$. .g g s + l m.U.m.U.",
"T.Y.m.Y.I.p.: 3 g g g g g g g g g $.9.0.0.0.:.h g s + l m.U.Y.Y.",
"I.m.m.I.m.p.# $ t f d 8 s g g g g  .$.$.$.%. .h g s + l I.Y.Y.m.",
"m.m.m.m.m.p.& + ; y s 5 t f g g g g g g g g g g g y + l I.T.U.m.",
"U.m.m.m.m.s.: O ; 5 5 3 4 5 s g g n g g g g g v y 3 o S I.Y.m.I.",
"Y.E.Y.Y.E.s.: + ; ; ; ; 0 P  .$. .%.$.$.$.$.$.$.t * < ^ b.Y.Y.Y.",
"E.T.Y.E.E.d.: + ; ; ; ; P e.e.r.r.r.r.r.r.r.r.r.s : 2.c.m.m.Y.E.",
"m.m.Y.E.m.s.: + ; ; ; ; I C.C.M.#.,.C.C.N.#.<.C.L : p.m.U.m.Y.I.",
"m.c.U.T.m.d.j & % 0 u 5 *.P.P.V.9 Y P.P.V.9 Y L.T # p.m.Y.Y.Y.U.",
"Y.Y.Y.m.m.c.p.l o E q.b ,.P.P.N.9 Y P.P.V.9 Y L.T # u.m.m.T.R.T.",
"T.T.T.I.Y.m.U.~   3.S.7.e.P.P.Z.I <.P.P.Z.I 1.L.T & i.I.m.R.R.E.",
"T.T.T.Y.U.Y.Y.~   3.P.J.J.P.P.H.y.D.P.P.H.y.D.L.T : p.m.m.Y.T.T.",
"T.T.Y.T.U.U.T.a.H U <.N.S.E.K.K.G.H.P.P.K.G.t.*.H _ x.m.E.T.m.T.",
"Y.T.Y.m.m.U.x.h.l.k 5 4.B.S.H.F.F.F.F.S.A.A.>.  Q c.m.m.Y.Y.Y.E.",
"T.T.T.Y.U.h.c q q 8 ] | -.;.I W =.;.;.@.F F >   & G g.Y.E.E.E.m.",
"m.Y.m.Y.f.( z x x a ] [ { } C B [ } } C m X $ S z z ) f.m.m.Y.T.",
"Y.m.m.Y.H r j.A.A.E 6 [ } o.Z V X.O.O.Z M X F Z.A.j.w G m.m.m.m.",
"m.m.m.m.l w V.F.B.P 3 1 a ..J ' A ....J N O Y L.S.w.9 l m.m.m.m.",
"m.m.m.n.G r j.M.5.v * @ - N N N N N N N M = L A.e.$.9 H m.T.Y.Y.",
"m.n.m.m.p.( z p 5 R ) i 4 = = = = = = = - 5 t x p w ~ s.U.U.T.T.",
"m.m.m.m.m.f.l j j u.k.^ c j < e j e e j k K c e e G g.Y.T.U.U.U.",
"T.m.m.m.m.m.k.x.l.m.n.l.k.x.x.l.b.v.z.b.v.l.b.v.b.b.I.U.T.T.T.U.",
"m.m.m.m.m.m.m.m.m.I.m.m.m.m.T.R.R.T.Y.T.R.Y.T.Y.Y.Y.T.T.U.m.Y.U.",
"n.n.m.m.n.n.m.m.m.U.m.m.m.m.U.U.c.m.Y.T.T.T.T.T.Y.Y.T.T.T.m.Y.m."
};
