/* XPM */
static char *Studio_Project__11_1736858694[] = {
/* columns rows colors chars-per-pixel */
"32 32 153 2 ",
"   c #1B1625",
".  c #1F1827",
"X  c #1C1B2B",
"o  c #211827",
"O  c #241B29",
"+  c #2A1C29",
"@  c #24212A",
"#  c #2A232B",
"$  c #33252D",
"%  c #3A242E",
"&  c #3A292F",
"*  c #202337",
"=  c #212338",
"-  c #25293F",
";  c #3F2731",
":  c #352B31",
">  c #3D2E34",
",  c #383236",
"<  c #3B3634",
"1  c #3F3C38",
"2  c #44272E",
"3  c #412631",
"4  c #432931",
"5  c #4E2E32",
"6  c #522E34",
"7  c #433333",
"8  c #4D3435",
"9  c #493A36",
"0  c #453638",
"q  c #403D39",
"w  c #573033",
"e  c #5A3937",
"r  c #553A3B",
"t  c #633536",
"y  c #6A3737",
"u  c #6C3837",
"i  c #663738",
"p  c #6B3939",
"a  c #753C3A",
"s  c #4C463C",
"d  c #74433C",
"f  c #7C423C",
"g  c #272D45",
"h  c #2C2E45",
"j  c #2B334D",
"k  c #323955",
"l  c #3D3C55",
"z  c #343F5E",
"x  c #533E4A",
"c  c #453651",
"v  c #374564",
"b  c #3B4464",
"n  c #46404D",
"m  c #594540",
"M  c #504D40",
"N  c #595344",
"B  c #5E5948",
"V  c #664742",
"C  c #734E43",
"Z  c #6C5348",
"A  c #645F4B",
"S  c #66624C",
"D  c #6A654E",
"F  c #6D684F",
"G  c #76624C",
"H  c #6A6552",
"J  c #6F6850",
"K  c #7F6150",
"L  c #797356",
"P  c #7B775A",
"I  c #7E7A5C",
"U  c #4A4261",
"Y  c #9F2738",
"T  c #8E313A",
"R  c #B0363F",
"E  c #CA293D",
"W  c #82463E",
"Q  c #82483F",
"!  c #9E2D43",
"~  c #863047",
"^  c #803A44",
"/  c #813C57",
"(  c #973A53",
")  c #BB374D",
"_  c #A83951",
"`  c #874940",
"'  c #8D4F43",
"]  c #855244",
"[  c #875C4B",
"{  c #935245",
"}  c #9A5747",
"|  c #965C4A",
" . c #9E5948",
".. c #A05A49",
"X. c #856552",
"o. c #8C6A56",
"O. c #936550",
"+. c #956F59",
"@. c #827E5E",
"#. c #AB644E",
"$. c #B1664F",
"%. c #AC6C52",
"&. c #B46850",
"*. c #BA6C53",
"=. c #A67359",
"-. c #AA795F",
";. c #B27254",
":. c #BC7656",
">. c #BE7758",
",. c #B07A5F",
"<. c #C06365",
"1. c #C7716A",
"2. c #CD7C6D",
"3. c #8A8463",
"4. c #948E67",
"5. c #968F6A",
"6. c #959067",
"7. c #97916B",
"8. c #99946D",
"9. c #9F9A6F",
"0. c #999371",
"q. c #BE8968",
"w. c #A49E74",
"e. c #ACA576",
"r. c #A6A178",
"t. c #ADA779",
"y. c #AFA879",
"u. c #B3AC7D",
"i. c #C58B67",
"p. c #CD8B66",
"a. c #C68B69",
"s. c #C98C6A",
"d. c #D38E6B",
"f. c #DB9A6F",
"g. c #D38770",
"h. c #CB9770",
"j. c #CF9B74",
"k. c #D19C73",
"l. c #DB9B74",
"z. c #F18F7A",
"x. c #E79C77",
"c. c #F0947C",
"v. c #DFA377",
"b. c #E2A377",
"n. c #E3A379",
"m. c #EAA77D",
"M. c #E9AD7D",
"N. c #B6AF80",
"B. c #B7B082",
"V. c #B9B284",
"C. c #BCB689",
"Z. c #BFB98C",
"A. c #C1BA8E",
/* pixels */
"y.u.y.u.u.N.N.N.C.u.u.u.u.B.B.B.N.u.B.B.u.V.V.V.V.C.u.V.u.u.u.u.",
"t.u.V.V.N.N.V.C.y.u.u.u.V.C.A.A.B.V.B.B.u.u.u.u.u.u.y.u.u.u.e.u.",
"u.B.C.V.N.C.C.N.V.y.u.u.V.C.A.A.V.C.C.V.V.u.V.u.u.u.u.u.u.u.y.y.",
"V.N.C.C.V.Z.C.N.C.u.u.u.u.3.L @.N.0.P P r.V.V.V.y.u.u.u.u.u.u.u.",
"N.N.C.C.C.N.V.C.V.u.V.u.V.q . : 0.N o   I N.V.u.u.B.u.B.y.u.B.u.",
"N.C.N.V.C.N.u.u.V.V.u.V.V.1 8 ] 7 V a   I V.u.u.u.u.B.N.u.u.u.N.",
"V.B.N.N.u.V.N.N.B.V.@.A S 0 p ' 5 a C   s A D w.u.u.u.B.u.t.u.u.",
"N.N.C.N.C.V.C.N.y.7.s + + t f W ` a t + + + $ P r.V.V.V.B.u.u.u.",
"u.N.V.V.C.B.C.u.8.: 5 u y a ' $.&.{ a u u y t $ F u.B.V.N.N.N.B.",
"C.V.N.B.V.V.V.@.s 6 y a a a W { &.#.....W a a 6 9 D y.V.B.B.V.V.",
"N.y.u.u.u.u.V.S + y a a a a a f  .$.*.*.} W a a 2 < u.V.V.V.V.y.",
"u.u.u.u.u.B.y.A O y a a a a a a a } *.*.*. .a a 2 < y.N.V.C.B.N.",
"B.N.u.V.u.V.u.A o 2 i i 5 p a a a f ` ` Q W a a 2 < t.V.V.N.N.u.",
"C.C.V.C.C.V.C.H o % 5 w 3 6 i a a a a a a f a t $ < r.u.N.V.V.V.",
"A.C.B.A.A.C.C.A o % 3 ; ; 8 p ` C ` ` ` Q Q f 4 $ s t.u.N.u.V.Z.",
"u.u.C.C.V.C.V.D . % ; ; 3 | :.:.:.>.:.:.>.>.%.: N w.u.u.u.u.V.V.",
"u.y.A.u.u.u.u.D   % ; ; 2 ,.f.s.C =.f.f.[ O.a.; H N.N.u.V.V.V.N.",
"u.C.u.u.u.C.u.I , $ r V 6 q.M.h.% o.M.M.m Z k.> S y.y.y.N.C.Z.V.",
"A.A.A.u.A.u.u.u.4.# +.i.d s.M.h.: +.M.M.m Z k.> S N.u.N.B.Z.Z.Z.",
"A.u.A.u.C.u.C.C.4.# +.v.a.b.M.n.<.g.M.M.1.2.k.> S V.u.u.B.V.C.Z.",
"A.C.u.A.u.V.C.u.9.B Z -.f.n.M.m.z.c.M.M.c.a.X.N 3.B.B.u.C.V.B.C.",
"u.A.u.u.u.V.u.u.u.9.s 7 ;.d.l.k.l.x.v.j.h.X.O 4.V.B.V.V.C.V.V.C.",
"A.Z.A.u.u.C.u.u.8.< X o % T ^ x R R ~ n , # @ 5.B.u.B.V.Z.C.Z.B.",
"u.u.u.A.V.C.u.4.s K o.Z + Y ~ c R E Y k = 0 X.N 3.u.V.V.V.V.V.V.",
"u.u.u.Z.u.V.u.S 4 k.n.-.3 ! / U _ ) ( b = V s.& S V.V.V.V.u.u.u.",
"u.u.u.u.j.Z.V.S , k.p.| ; l v v b b b v = e #.$ S u.u.V.u.u.u.u.",
"u.u.u.u.V.u.V.9.J m r 4 O k v z - g j j * # 9 F 8.u.u.V.V.V.V.V.",
"u.u.u.u.y.u.u.u.w.B M 9 % h j h X X * * $ 7 N w.V.V.V.u.V.V.C.C.",
"u.B.u.u.u.u.u.V.u.N.B.3.d : @ @ O @ @ @ r G u.u.B.B.V.V.V.B.B.V.",
"B.B.u.u.u.u.u.u.N.N.u.r.4.8.6.6.0.8.7.8.0.w.V.V.Z.V.V.V.V.Z.V.V.",
"u.u.u.u.u.u.u.u.u.N.u.u.u.u.C.A.Z.V.V.C.Z.C.C.V.B.V.C.C.B.B.V.B.",
"y.y.y.u.y.y.u.u.u.N.N.u.u.u.u.V.y.u.V.C.V.C.C.C.V.V.C.C.V.u.B.u."
};
