/* XPM */
static char *Studio_Project__25_1736867166[] = {
/* columns rows colors chars-per-pixel */
"32 32 171 2 ",
"   c #191525",
".  c #1E1926",
"X  c #181728",
"o  c #1E1E32",
"O  c #241A27",
"+  c #221D29",
"@  c #2A1D2A",
"#  c #381728",
"$  c #301E29",
"%  c #26222B",
"&  c #2C292D",
"*  c #33212C",
"=  c #3C242D",
"-  c #282937",
";  c #3F2731",
":  c #382A36",
">  c #373333",
",  c #3A3634",
"<  c #3F3C39",
"1  c #42262E",
"2  c #412A2F",
"3  c #48292F",
"4  c #452A31",
"5  c #4D2C32",
"6  c #522E33",
"7  c #59273C",
"8  c #453536",
"9  c #413C37",
"0  c #463539",
"q  c #4A3A39",
"w  c #543234",
"e  c #5B3335",
"r  c #573638",
"t  c #573C3A",
"y  c #5D3A3B",
"u  c #782D3C",
"i  c #663636",
"p  c #6A3837",
"a  c #643C3A",
"s  c #6C3938",
"d  c #703139",
"f  c #753C3A",
"g  c #793F3B",
"h  c #49443C",
"j  c #4A463C",
"k  c #5C443E",
"l  c #534A3F",
"z  c #65433D",
"x  c #6C423D",
"c  c #75423D",
"v  c #7B413C",
"b  c #2E2F46",
"n  c #2B324B",
"m  c #313D59",
"M  c #4B3344",
"N  c #503751",
"B  c #6D344D",
"V  c #71334C",
"C  c #6F3F5B",
"Z  c #3F4363",
"A  c #5B4C40",
"S  c #5C5545",
"D  c #5E5A48",
"F  c #55415F",
"G  c #5C405D",
"H  c #664C45",
"J  c #694B44",
"K  c #7A4940",
"L  c #635345",
"P  c #695247",
"I  c #6E5248",
"U  c #615B49",
"Y  c #735449",
"T  c #7A574B",
"R  c #76594C",
"E  c #64614C",
"W  c #69644D",
"Q  c #6D6750",
"!  c #6E6A53",
"~  c #726D54",
"^  c #786B51",
"/  c #7B7257",
"(  c #7A775A",
")  c #7E795B",
"_  c #474361",
"`  c #8C1D30",
"'  c #A51F33",
"]  c #932737",
"[  c #CD2A3E",
"{  c #82453E",
"}  c #AE2E43",
"|  c #A93850",
" . c #C5364B",
".. c #864940",
"X. c #8A4A41",
"o. c #9D4C44",
"O. c #8C5347",
"+. c #845A4C",
"@. c #935245",
"#. c #995547",
"$. c #9A5748",
"%. c #9F5A49",
"&. c #8A5E50",
"*. c #A85F4C",
"=. c #99614D",
"-. c #896854",
";. c #936452",
":. c #946F59",
">. c #837D5E",
",. c #96705B",
"<. c #A9614C",
"1. c #A8674F",
"2. c #B1664F",
"3. c #A66752",
"4. c #A76D54",
"5. c #AB6950",
"6. c #B56951",
"7. c #BA6D53",
"8. c #AF7256",
"9. c #B67658",
"0. c #847D61",
"q. c #977662",
"w. c #B56362",
"e. c #AE7662",
"r. c #A87863",
"t. c #BE7167",
"y. c #C26353",
"u. c #CD735F",
"i. c #C17364",
"p. c #87815F",
"a. c #88825F",
"s. c #8A8463",
"d. c #8E8965",
"f. c #918C67",
"g. c #928D68",
"h. c #97916B",
"j. c #9B946E",
"k. c #9C9670",
"l. c #BB8465",
"z. c #BE8D6B",
"x. c #A09A6F",
"c. c #A29C73",
"v. c #A6A173",
"b. c #AAA376",
"n. c #ADA67A",
"m. c #AFA979",
"M. c #B3AC7D",
"N. c #C6835F",
"B. c #CB8861",
"V. c #C38C69",
"C. c #D08B64",
"Z. c #D38D68",
"A. c #C4926D",
"S. c #CF936E",
"D. c #D9976D",
"F. c #D79A71",
"G. c #DB9C76",
"H. c #E18374",
"J. c #F3887B",
"K. c #F1907B",
"L. c #DEA276",
"P. c #E2A678",
"I. c #EBA47C",
"U. c #E6AA7C",
"Y. c #E8AC7D",
"T. c #B6AF80",
"R. c #B7B082",
"E. c #B9B385",
"W. c #BCB589",
"Q. c #BFB98C",
"!. c #C1BB8F",
/* pixels */
"m.M.M.M.M.T.T.m.W.M.M.M.M.R.E.R.M.M.E.E.M.R.E.E.E.E.M.W.M.M.M.m.",
"n.M.E.E.T.T.W.W.m.M.M.M.k.) 0.d.m.k.) ) a.c.M.M.M.M.m.M.M.M.b.M.",
"M.T.W.E.E.W.W.T.E.m.M.M.~ % + 9 j.( % % , d.R.R.M.M.M.M.M.M.m.M.",
"R.E.W.W.E.W.W.T.E.M.M.M.! X 8 z S l x = > g.E.M.m.M.M.M.M.M.M.M.",
"M.E.W.W.W.M.W.W.M.b.c.k.W + v $.2 r 2.r & ) c.c.n.R.R.M.m.M.M.M.",
"E.E.T.E.W.T.M.n.M.W h < q e v { i s X.3 + , 9 9 >.M.R.R.M.M.M.R.",
"E.R.R.T.M.W.R.k.>.q $ * 3 v { { X.{ f 5 * * * * l p.c.M.M.M.M.M.",
"M.T.E.R.W.R.W.~ % 6 p p f f #.2.6.$.v s p p p p 2 , f.W.T.M.M.M.",
"M.R.E.R.W.c.~ q 5 i f f f f { *.6.<.#.#.@.v f f e 3 l ) m.R.M.R.",
"W.E.M.E.R.s.& 1 f f f f f f g { <.6.7.7.2.X.v f c i $ h b.R.R.W.",
"T.M.M.M.M.s.& 1 f f f f f f f g { *.7.7.6.<.@.g f i $ h n.W.W.M.",
"M.M.M.M.M.0.& ; i s f p p f f f f ..*.<.<.*.@.v f i $ h n.W.M.M.",
"R.R.R.M.R.s.& @ 4 i s 5 e f f f f g v v v v v f f i * h n.R.M.M.",
"W.W.R.R.!.s.& @ 1 6 6 4 5 e p f f f f g f f f f i 5 @ h v.W.W.E.",
"!.!.M.!.!.f.& @ ; ; ; ; 4 4 a c g g v v c v v v e * % h n.M.E.Q.",
"M.m.W.!.M.s.& @ ; ; ; ; B =.1.1.5.5.5.5.5.5.5.5.z * D s.m.M.R.R.",
"M.M.E.W.M.s.& O ; ; ; ; c C.C.N.5.8.B.C.B.3.8.C.J & s.M.R.R.R.R.",
"M.M.E.M.M.a.& @ ; ; ; ; +.P.P.z.k Y P.P.V.A Y G.Y & >.M.M.!.!.W.",
"!.W.W.M.E.j.E < * H T a ;.Y.Y.z.8 P Y.Y.A.q H L.R & >.M.M.!.!.!.",
"!.W.W.W.M.E.E.W O q.S.O.8.Y.Y.V.0 I Y.Y.A.q P P.R & a.M.M.M.W.W.",
"E.!.W.W.R.R.W.W O ,.L.V.S.Y.Y.G.w.t.Y.Y.G.w.t.U.T & s.M.!.!.M.E.",
"W.M.M.M.M.R.M.( , -.A.G.P.Y.Y.I.J.K.Y.Y.I.J.H.z.P h h.E.W.E.M.!.",
"W.!.!.E.R.W.M.v.d.l k 9.D.Y.Y.I.I.I.Y.Y.Y.I.e.0 U j.M.M.!.!.!.M.",
"M.M.M.E.R.W.M.h.W > = o.y.u.e.r.i.u.u.e.q.,.H . W M.!.M.M.E.M.!.",
"E.M.E.E.M.M.M.Q     # ` ' ' 7 b ` ' ' d -       ! M.E.M.W.M.M.M.",
"M.M.M.M.E.x.U L :.:.&.d ]  .B N } [  .V n o 8 :.L U j.E.M.M.M.M.",
"M.M.M.M.R.a.& R U.P.l.y u  .G F |  . .G m o z F.Y & p.E.M.W.W.E.",
"M.M.M.M.m.a.& R U.Z.3.r 7 G F Z G G F _ m o t 9.z & a.M.W.M.W.W.",
"M.M.M.M.M.j.S L :.+.c e M n n n n n n n b : w c k D k.E.W.E.M.W.",
"!.M.M.M.M.M.m.W . O $ i 3   X   . .     @ e 6 O W E.E.E.W.W.M.E.",
"M.M.M.M.M.M.M.f.Q E W ^ Q W Q ~ ~ Q W Q ~ ( / ! h.W.W.E.M.M.W.E.",
"m.m.m.M.m.m.M.M.T.M.T.M.T.M.M.W.n.T.E.W.E.W.W.W.E.E.W.!.W.M.E.M."
};
