/* XPM */
static char *Studio_Project__27_1736867764[] = {
/* columns rows colors chars-per-pixel */
"32 32 160 2 ",
"   c #1A1525",
".  c #191829",
"X  c #1E1F32",
"o  c #221927",
"O  c #251A29",
"+  c #2A1D29",
"@  c #301F2B",
"#  c #27242C",
"$  c #2F2C2F",
"%  c #35242E",
"&  c #3F252E",
"*  c #312C2F",
"=  c #3A2B2F",
"-  c #2B2333",
";  c #2C283C",
":  c #3F2731",
">  c #322D31",
",  c #3D2930",
"<  c #363232",
"1  c #4F1A2C",
"2  c #422631",
"3  c #442B32",
"4  c #4B2C33",
"5  c #562431",
"6  c #522D32",
"7  c #433335",
"8  c #463738",
"9  c #483638",
"0  c #4A3A38",
"q  c #573536",
"w  c #5A3235",
"e  c #5B3937",
"r  c #533639",
"t  c #5E3C3C",
"y  c #61242F",
"u  c #66273C",
"i  c #633536",
"p  c #683737",
"a  c #6C3A39",
"s  c #77393B",
"d  c #753C3A",
"f  c #47413A",
"g  c #4B443C",
"h  c #4D493D",
"j  c #57463D",
"k  c #63423C",
"l  c #7D423C",
"z  c #282F47",
"x  c #2F354F",
"c  c #313C59",
"v  c #49324B",
"b  c #662F47",
"n  c #682F47",
"m  c #7E3C57",
"M  c #4E4B40",
"N  c #4D444B",
"B  c #504D41",
"V  c #575243",
"C  c #5D5243",
"Z  c #5E5B49",
"A  c #55415F",
"S  c #5A405D",
"D  c #644D45",
"F  c #694E46",
"G  c #63454D",
"H  c #774C43",
"J  c #78434A",
"K  c #615344",
"L  c #6B5247",
"P  c #6F5449",
"I  c #625C4A",
"U  c #7A5347",
"Y  c #6A654E",
"T  c #76654D",
"R  c #6B6751",
"E  c #746E53",
"W  c #777358",
"Q  c #7C7659",
"!  c #7E795C",
"~  c #464261",
"^  c #862132",
"/  c #8F2132",
"(  c #982033",
")  c #A32C3C",
"_  c #B02236",
"`  c #BF263A",
"'  c #C0273A",
"]  c #81453E",
"[  c #85483F",
"{  c #823C57",
"}  c #B43E43",
"|  c #C4344B",
" . c #E73145",
".. c #864A41",
"X. c #8E4E43",
"o. c #904F44",
"O. c #8B5345",
"+. c #83564A",
"@. c #945445",
"#. c #975847",
"$. c #9B5748",
"%. c #975848",
"&. c #9D5B49",
"*. c #8A5152",
"=. c #A55D4B",
"-. c #84604F",
";. c #8F624F",
":. c #836151",
">. c #9E6758",
",. c #837D5D",
"<. c #98725B",
"1. c #AE644E",
"2. c #AF6650",
"3. c #A1675C",
"4. c #B46A50",
"5. c #BA6C53",
"6. c #AE7359",
"7. c #B2785D",
"8. c #C77E5C",
"9. c #C97F5C",
"0. c #F57D7A",
"q. c #8C8764",
"w. c #8E8966",
"e. c #928D67",
"r. c #918C69",
"t. c #96906A",
"y. c #9A946E",
"u. c #9C9670",
"i. c #9F9972",
"p. c #BF8464",
"a. c #BF8E6B",
"s. c #A19B6F",
"d. c #A29C73",
"f. c #ACA677",
"g. c #AEA779",
"h. c #AFA87A",
"j. c #B3AC7D",
"k. c #C9805C",
"l. c #C78663",
"z. c #C38865",
"x. c #C18F6C",
"c. c #C2916D",
"v. c #D7926F",
"b. c #DB936F",
"n. c #DA9A6F",
"m. c #C29370",
"M. c #CC9471",
"N. c #D19673",
"B. c #DC9C71",
"V. c #F2887B",
"C. c #EE9B7C",
"Z. c #EBA17C",
"A. c #E5AA7B",
"S. c #E8AC7D",
"D. c #B5AF81",
"F. c #B7B082",
"G. c #B9B385",
"H. c #BCB689",
"J. c #BFB88C",
"K. c #C1BB8F",
/* pixels */
"g.j.g.j.j.D.D.j.G.j.j.j.d.w.w.t.f.s.w.w.e.g.G.F.G.G.G.G.j.j.j.h.",
"g.j.G.G.D.G.G.H.f.j.j.j.Q $ > g u.! > $ f t.F.j.j.j.f.h.j.j.f.j.",
"j.F.H.G.F.H.G.F.j.q.Y Y g   , j I C t % # V R R e.j.j.j.j.j.f.h.",
"G.F.H.H.G.J.H.D.j.h         H &.& e 5.q         Y j.j.g.j.j.j.F.",
"D.F.G.H.H.D.G.w.h 4 6 6 6 6 O.1.O...@.p 6 6 6 6 0 Z y.F.j.j.j.j.",
"F.H.F.G.G.g.r.C @ w d d d d @.1.5.=.[ [ l l d d 4 = E y.j.j.j.F.",
"G.D.G.D.D.y.g 3 p a d d d d l X.1.4.1.2.=.] d d p w = Z g.j.j.j.",
"D.D.G.F.G.w.< & d d d d d d d l @.1.5.5.4.$...d d i + M j.j.j.j.",
"D.F.H.F.H.r.> & d d d d d d d d d o.5.5.5.5.&.d d i + h j.j.F.F.",
"G.F.D.F.D.r.> + 6 p a w i d d d d ] o.o.X.@.[ d d i % h j.F.G.F.",
"D.j.j.j.j.w.> O 2 6 i 3 6 p a d d d d d d d d d a w + h D.H.G.j.",
"j.j.j.j.j.r.> + 2 3 4 2 2 4 p d d d d d d d d d w 2 o h D.H.F.j.",
"F.F.F.F.D.r.> O : : 2 : r H O.@.%.%.#.%.@.$.%.%.q % g W D.G.j.j.",
"G.H.H.H.G.r.> + : : 2 = H 9.9.8.8.9.k.k.9.9.k.k.k * q.j.j.G.G.F.",
"K.H.G.H.J.r.> O : : : = U B.B.z.U ;.B.B.z.U ;.n.F * w.j.j.j.H.K.",
"j.j.G.H.F.u.M > % r b 9 ;.S.S.a.7 L S.S.x.8 F S.P * w.j.F.j.F.F.",
"j.h.G.H.j.j.u.Z o :.p.H >.S.A.a., L S.K.x.9 F S.P % q.j.F.G.G.F.",
"G.j.G.j.j.j.G.Y . <.N.7.p.S.A.v.*.3.S.Z.v.$.3.S.P * q.j.j.H.J.G.",
"H.H.H.j.G.j.F.R   <.S.S.A.S.A.Z.V.V.S.S.C.0.0.J.P $ q.F.G.H.J.K.",
"J.G.H.G.G.G.G.y.R K -.k.B.S.S.A.C.C.S.S.K.V.9.P K ! d.j.G.G.H.H.",
"H.H.G.H.F.g.i.e.w.h 6 =.9.b.N.M.b.b.b.N.m.x.T   Z u.h.j.H.H.G.G.",
"G.H.G.j.j.y.h < < y / ) ` $.m G $.' } J N 9 % . # h y.F.G.G.G.H.",
"H.J.G.G.q.Y k D D s ^ ( _ ` b v _ ' ' n z . > F K D Y w.H.H.H.G.",
"j.G.j.j.B 0 a.A.A.+.5 ( `  .m S |  . .m c X F A.A.a.0 h F.G.G.H.",
"G.j.j.j.h 0 c.B.l.H 1 1 u { A ~ J { { A c X K A.n.6., h F.j.j.j.",
"j.j.j.j.Y g e.7.=.F < % ; c c c c c c c x - D a.6.O.8 Z f.F.j.j.",
"j.j.j.j.y.E e 7 & I ,.j 3 X X X X X X X - 6 q 0 , 7 E u.j.H.G.G.",
"j.j.j.j.g.y.Z h M q.s.T D M h h M M h h j L K h M Z i.F.G.G.G.H.",
"j.j.j.j.j.j.h.j.h.D.F.D.g.D.g.g.D.D.D.f.h.h.h.h.j.h.G.G.H.G.G.G.",
"K.j.j.j.j.j.j.j.D.D.j.j.D.G.G.G.H.H.D.H.G.G.H.G.J.H.G.G.G.H.G.G.",
"j.h.j.j.j.j.j.j.g.D.D.h.D.h.G.J.H.G.G.H.J.H.H.G.G.G.H.G.j.F.G.F.",
"h.h.j.j.h.j.j.j.D.D.D.g.D.D.D.G.g.D.G.H.G.H.H.G.H.G.H.H.H.j.F.j."
};
