/* XPM */
static char *Studio_Project__13_1736860977[] = {
/* columns rows colors chars-per-pixel */
"32 32 91 1 ",
"  c #553337",
". c #583638",
"X c #26523F",
"o c #29543E",
"O c #285D3F",
"+ c #2C673B",
"@ c #2D6A3C",
"# c #337339",
"$ c #37793C",
"% c #57403F",
"& c #544C3D",
"* c #65433C",
"= c #68463E",
"- c #6A493D",
"; c #285F41",
": c #2A6340",
"> c #2C6941",
", c #317642",
"< c #347842",
"1 c #584441",
"2 c #5F544A",
"3 c #714E40",
"4 c #675042",
"5 c #735041",
"6 c #7C5745",
"7 c #4A6E45",
"8 c #506E48",
"9 c #527D47",
"0 c #57724B",
"q c #5C744D",
"w c #557B49",
"e c #5F725A",
"r c #646655",
"t c #656C51",
"y c #676958",
"u c #627450",
"i c #6A7752",
"p c #6D7C53",
"a c #62755D",
"s c #6E725D",
"d c #767758",
"f c #767C59",
"g c #7B7E5B",
"h c #727760",
"j c #815B47",
"k c #3B8343",
"l c #3E8A47",
"z c #408D47",
"x c #448C48",
"c c #459447",
"v c #4A9C45",
"b c #429048",
"n c #4B974C",
"m c #489949",
"M c #7E825D",
"N c #4FA242",
"B c #51A541",
"V c #56AD44",
"C c #56B24B",
"Z c #5DBD4D",
"A c #7D8366",
"S c #7E8568",
"D c #63C74D",
"F c #77C75F",
"G c #7DC764",
"H c #838663",
"J c #818867",
"K c #8F8B64",
"L c #858B6B",
"P c #8B8E6C",
"I c #908D67",
"U c #92916E",
"Y c #9A966E",
"T c #898F70",
"R c #8A9072",
"E c #929471",
"W c #999571",
"Q c #9C9972",
"! c #A09B76",
"~ c #84BB70",
"^ c #ADA776",
"/ c #ACA578",
"( c #AFA879",
") c #B3AC7D",
"_ c #96C77B",
"` c #B6AF81",
"' c #B7B082",
"] c #B9B284",
"[ c #BCB589",
"{ c #BFB98C",
"} c #C1BB8F",
/* pixels */
"())))``([))))']'))`])''''[['))((",
"/)]]``[[()))wxxxxxxx9)'))((())^)",
")`[]'[]`'Ypm~________cp!()))))((",
"]][[]{[]HmCF_________GCvM)'(())'",
"``'[[`]gvVDDFFF__FFGFDDVvp)`()'(",
"`[`[]`ikBBVDDDDDDZDDDDCBBki`)')'",
"[`'`)[8xBBvvZDDDDDDDZvvBBx7`)(`(",
"``[`]ilbBBBBBBbbbbbBBBBBBblu'))`",
")`]](qkzbBBBBBBBBBBBBBBNbbk0/)''",
"[``]Hk$kbbvBBBvvvvvBBNvcbk$kf'['",
"`)))gkkkzkbcvvbzbbbvvcbkxkklM[')",
"))))g<bbz#kbbbbzbbbbbbk#lbb<f[')",
"``]]g,bbbzzbb#######bblbbbz,d'))",
"][]!o,kzzbbbbb#####bbbbbxll,OU'[",
"}[]!O,,@@bbbbbbcbbbbbbzb@@,,:K[{",
"))]!O,,@@zbbbbbbbbbbbbbb@@,,:K''",
")^]!O,,@llmllclcbbbbbbbbl@,,:U''",
"]`]YO,,@lmllnlnlbbbbbbbbl@,,;U{[",
"]][YO,<>lmlmlllmbbbblblll@,,;W{}",
"}}[]H:,<,ll<>,clbbb@@<ll<<,>g][[",
"][]}]g+,,,,,@kxlbbll@<,,,>+d[['[",
"]]]()]ja>,,,,,kkkkk,,<,,+tg][]][",
"]}]])[])e:,,;,,,,,,,:,,:y']]{[{'",
"])]]][)RSaX;&;,#,,,X&;XeLP])[]][",
"))]])]ILLs*5--XXXXX=-3=sLLE'')))",
"))))]!PLL*6-=-=-=-=-*36*SLLQ)'))",
"))))`YLLJ-*%.=-6-55- **-SSLW'[['",
"))))/QLLLa4. =jjjjj-  2rLLLQ''[[",
")))))QJLJLSM1-------%hAJLLTW['']",
"})))))PLPLJLS4------LLTTRTR']{]'",
")))))))PSLLJLL4-4-5RRTTTTR[['']'",
"^^))(())UPLSLLLTSLRRTTRUY[]{[)')"
};
